%TF.GenerationSoftware,KiCad,Pcbnew,7.0.6*%
%TF.CreationDate,2023-10-15T16:26:04+03:00*%
%TF.ProjectId,MOSFET,4d4f5346-4554-42e6-9b69-6361645f7063,rev?*%
%TF.SameCoordinates,Original*%
%TF.FileFunction,Copper,L1,Top*%
%TF.FilePolarity,Positive*%
%FSLAX46Y46*%
G04 Gerber Fmt 4.6, Leading zero omitted, Abs format (unit mm)*
G04 Created by KiCad (PCBNEW 7.0.6) date 2023-10-15 16:26:04*
%MOMM*%
%LPD*%
G01*
G04 APERTURE LIST*
G04 Aperture macros list*
%AMRoundRect*
0 Rectangle with rounded corners*
0 $1 Rounding radius*
0 $2 $3 $4 $5 $6 $7 $8 $9 X,Y pos of 4 corners*
0 Add a 4 corners polygon primitive as box body*
4,1,4,$2,$3,$4,$5,$6,$7,$8,$9,$2,$3,0*
0 Add four circle primitives for the rounded corners*
1,1,$1+$1,$2,$3*
1,1,$1+$1,$4,$5*
1,1,$1+$1,$6,$7*
1,1,$1+$1,$8,$9*
0 Add four rect primitives between the rounded corners*
20,1,$1+$1,$2,$3,$4,$5,0*
20,1,$1+$1,$4,$5,$6,$7,0*
20,1,$1+$1,$6,$7,$8,$9,0*
20,1,$1+$1,$8,$9,$2,$3,0*%
G04 Aperture macros list end*
%ADD10C,0.100000*%
%TA.AperFunction,NonConductor*%
%ADD11C,0.100000*%
%TD*%
%TA.AperFunction,NonConductor*%
%ADD12C,0.200000*%
%TD*%
%TA.AperFunction,ComponentPad*%
%ADD13R,1.350000X1.350000*%
%TD*%
%TA.AperFunction,ComponentPad*%
%ADD14O,1.350000X1.350000*%
%TD*%
%TA.AperFunction,SMDPad,CuDef*%
%ADD15RoundRect,0.150000X0.825000X0.150000X-0.825000X0.150000X-0.825000X-0.150000X0.825000X-0.150000X0*%
%TD*%
%TA.AperFunction,ViaPad*%
%ADD16C,0.800000*%
%TD*%
%TA.AperFunction,Conductor*%
%ADD17C,0.250000*%
%TD*%
G04 APERTURE END LIST*
D10*
D11*
X128684836Y-70353133D02*
X128684836Y-69653133D01*
X128684836Y-69653133D02*
X128803884Y-69653133D01*
X128803884Y-69653133D02*
X128875312Y-69686466D01*
X128875312Y-69686466D02*
X128922931Y-69753133D01*
X128922931Y-69753133D02*
X128946741Y-69819800D01*
X128946741Y-69819800D02*
X128970550Y-69953133D01*
X128970550Y-69953133D02*
X128970550Y-70053133D01*
X128970550Y-70053133D02*
X128946741Y-70186466D01*
X128946741Y-70186466D02*
X128922931Y-70253133D01*
X128922931Y-70253133D02*
X128875312Y-70319800D01*
X128875312Y-70319800D02*
X128803884Y-70353133D01*
X128803884Y-70353133D02*
X128684836Y-70353133D01*
X129375312Y-70319800D02*
X129327693Y-70353133D01*
X129327693Y-70353133D02*
X129232455Y-70353133D01*
X129232455Y-70353133D02*
X129184836Y-70319800D01*
X129184836Y-70319800D02*
X129161027Y-70253133D01*
X129161027Y-70253133D02*
X129161027Y-69986466D01*
X129161027Y-69986466D02*
X129184836Y-69919800D01*
X129184836Y-69919800D02*
X129232455Y-69886466D01*
X129232455Y-69886466D02*
X129327693Y-69886466D01*
X129327693Y-69886466D02*
X129375312Y-69919800D01*
X129375312Y-69919800D02*
X129399122Y-69986466D01*
X129399122Y-69986466D02*
X129399122Y-70053133D01*
X129399122Y-70053133D02*
X129161027Y-70119800D01*
X129589598Y-70319800D02*
X129637217Y-70353133D01*
X129637217Y-70353133D02*
X129732455Y-70353133D01*
X129732455Y-70353133D02*
X129780074Y-70319800D01*
X129780074Y-70319800D02*
X129803883Y-70253133D01*
X129803883Y-70253133D02*
X129803883Y-70219800D01*
X129803883Y-70219800D02*
X129780074Y-70153133D01*
X129780074Y-70153133D02*
X129732455Y-70119800D01*
X129732455Y-70119800D02*
X129661026Y-70119800D01*
X129661026Y-70119800D02*
X129613407Y-70086466D01*
X129613407Y-70086466D02*
X129589598Y-70019800D01*
X129589598Y-70019800D02*
X129589598Y-69986466D01*
X129589598Y-69986466D02*
X129613407Y-69919800D01*
X129613407Y-69919800D02*
X129661026Y-69886466D01*
X129661026Y-69886466D02*
X129732455Y-69886466D01*
X129732455Y-69886466D02*
X129780074Y-69919800D01*
X130018169Y-70353133D02*
X130018169Y-69886466D01*
X130018169Y-69653133D02*
X129994360Y-69686466D01*
X129994360Y-69686466D02*
X130018169Y-69719800D01*
X130018169Y-69719800D02*
X130041979Y-69686466D01*
X130041979Y-69686466D02*
X130018169Y-69653133D01*
X130018169Y-69653133D02*
X130018169Y-69719800D01*
X130470550Y-69886466D02*
X130470550Y-70453133D01*
X130470550Y-70453133D02*
X130446740Y-70519800D01*
X130446740Y-70519800D02*
X130422931Y-70553133D01*
X130422931Y-70553133D02*
X130375312Y-70586466D01*
X130375312Y-70586466D02*
X130303883Y-70586466D01*
X130303883Y-70586466D02*
X130256264Y-70553133D01*
X130470550Y-70319800D02*
X130422931Y-70353133D01*
X130422931Y-70353133D02*
X130327693Y-70353133D01*
X130327693Y-70353133D02*
X130280074Y-70319800D01*
X130280074Y-70319800D02*
X130256264Y-70286466D01*
X130256264Y-70286466D02*
X130232455Y-70219800D01*
X130232455Y-70219800D02*
X130232455Y-70019800D01*
X130232455Y-70019800D02*
X130256264Y-69953133D01*
X130256264Y-69953133D02*
X130280074Y-69919800D01*
X130280074Y-69919800D02*
X130327693Y-69886466D01*
X130327693Y-69886466D02*
X130422931Y-69886466D01*
X130422931Y-69886466D02*
X130470550Y-69919800D01*
X130708645Y-69886466D02*
X130708645Y-70353133D01*
X130708645Y-69953133D02*
X130732455Y-69919800D01*
X130732455Y-69919800D02*
X130780074Y-69886466D01*
X130780074Y-69886466D02*
X130851502Y-69886466D01*
X130851502Y-69886466D02*
X130899121Y-69919800D01*
X130899121Y-69919800D02*
X130922931Y-69986466D01*
X130922931Y-69986466D02*
X130922931Y-70353133D01*
X131351502Y-70319800D02*
X131303883Y-70353133D01*
X131303883Y-70353133D02*
X131208645Y-70353133D01*
X131208645Y-70353133D02*
X131161026Y-70319800D01*
X131161026Y-70319800D02*
X131137217Y-70253133D01*
X131137217Y-70253133D02*
X131137217Y-69986466D01*
X131137217Y-69986466D02*
X131161026Y-69919800D01*
X131161026Y-69919800D02*
X131208645Y-69886466D01*
X131208645Y-69886466D02*
X131303883Y-69886466D01*
X131303883Y-69886466D02*
X131351502Y-69919800D01*
X131351502Y-69919800D02*
X131375312Y-69986466D01*
X131375312Y-69986466D02*
X131375312Y-70053133D01*
X131375312Y-70053133D02*
X131137217Y-70119800D01*
X131803883Y-70353133D02*
X131803883Y-69653133D01*
X131803883Y-70319800D02*
X131756264Y-70353133D01*
X131756264Y-70353133D02*
X131661026Y-70353133D01*
X131661026Y-70353133D02*
X131613407Y-70319800D01*
X131613407Y-70319800D02*
X131589597Y-70286466D01*
X131589597Y-70286466D02*
X131565788Y-70219800D01*
X131565788Y-70219800D02*
X131565788Y-70019800D01*
X131565788Y-70019800D02*
X131589597Y-69953133D01*
X131589597Y-69953133D02*
X131613407Y-69919800D01*
X131613407Y-69919800D02*
X131661026Y-69886466D01*
X131661026Y-69886466D02*
X131756264Y-69886466D01*
X131756264Y-69886466D02*
X131803883Y-69919800D01*
X132422930Y-70353133D02*
X132422930Y-69653133D01*
X132422930Y-69919800D02*
X132470549Y-69886466D01*
X132470549Y-69886466D02*
X132565787Y-69886466D01*
X132565787Y-69886466D02*
X132613406Y-69919800D01*
X132613406Y-69919800D02*
X132637216Y-69953133D01*
X132637216Y-69953133D02*
X132661025Y-70019800D01*
X132661025Y-70019800D02*
X132661025Y-70219800D01*
X132661025Y-70219800D02*
X132637216Y-70286466D01*
X132637216Y-70286466D02*
X132613406Y-70319800D01*
X132613406Y-70319800D02*
X132565787Y-70353133D01*
X132565787Y-70353133D02*
X132470549Y-70353133D01*
X132470549Y-70353133D02*
X132422930Y-70319800D01*
X132827692Y-69886466D02*
X132946740Y-70353133D01*
X133065787Y-69886466D02*
X132946740Y-70353133D01*
X132946740Y-70353133D02*
X132899121Y-70519800D01*
X132899121Y-70519800D02*
X132875311Y-70553133D01*
X132875311Y-70553133D02*
X132827692Y-70586466D01*
X133256263Y-70286466D02*
X133280073Y-70319800D01*
X133280073Y-70319800D02*
X133256263Y-70353133D01*
X133256263Y-70353133D02*
X133232454Y-70319800D01*
X133232454Y-70319800D02*
X133256263Y-70286466D01*
X133256263Y-70286466D02*
X133256263Y-70353133D01*
X133256263Y-69919800D02*
X133280073Y-69953133D01*
X133280073Y-69953133D02*
X133256263Y-69986466D01*
X133256263Y-69986466D02*
X133232454Y-69953133D01*
X133232454Y-69953133D02*
X133256263Y-69919800D01*
X133256263Y-69919800D02*
X133256263Y-69986466D01*
X128684836Y-71480133D02*
X128684836Y-70780133D01*
X128684836Y-70780133D02*
X128970550Y-71480133D01*
X128970550Y-71480133D02*
X128970550Y-70780133D01*
X129422932Y-71013466D02*
X129422932Y-71580133D01*
X129422932Y-71580133D02*
X129399122Y-71646800D01*
X129399122Y-71646800D02*
X129375313Y-71680133D01*
X129375313Y-71680133D02*
X129327694Y-71713466D01*
X129327694Y-71713466D02*
X129256265Y-71713466D01*
X129256265Y-71713466D02*
X129208646Y-71680133D01*
X129422932Y-71446800D02*
X129375313Y-71480133D01*
X129375313Y-71480133D02*
X129280075Y-71480133D01*
X129280075Y-71480133D02*
X129232456Y-71446800D01*
X129232456Y-71446800D02*
X129208646Y-71413466D01*
X129208646Y-71413466D02*
X129184837Y-71346800D01*
X129184837Y-71346800D02*
X129184837Y-71146800D01*
X129184837Y-71146800D02*
X129208646Y-71080133D01*
X129208646Y-71080133D02*
X129232456Y-71046800D01*
X129232456Y-71046800D02*
X129280075Y-71013466D01*
X129280075Y-71013466D02*
X129375313Y-71013466D01*
X129375313Y-71013466D02*
X129422932Y-71046800D01*
X129732456Y-71480133D02*
X129684837Y-71446800D01*
X129684837Y-71446800D02*
X129661027Y-71413466D01*
X129661027Y-71413466D02*
X129637218Y-71346800D01*
X129637218Y-71346800D02*
X129637218Y-71146800D01*
X129637218Y-71146800D02*
X129661027Y-71080133D01*
X129661027Y-71080133D02*
X129684837Y-71046800D01*
X129684837Y-71046800D02*
X129732456Y-71013466D01*
X129732456Y-71013466D02*
X129803884Y-71013466D01*
X129803884Y-71013466D02*
X129851503Y-71046800D01*
X129851503Y-71046800D02*
X129875313Y-71080133D01*
X129875313Y-71080133D02*
X129899122Y-71146800D01*
X129899122Y-71146800D02*
X129899122Y-71346800D01*
X129899122Y-71346800D02*
X129875313Y-71413466D01*
X129875313Y-71413466D02*
X129851503Y-71446800D01*
X129851503Y-71446800D02*
X129803884Y-71480133D01*
X129803884Y-71480133D02*
X129732456Y-71480133D01*
X130327694Y-71446800D02*
X130280075Y-71480133D01*
X130280075Y-71480133D02*
X130184837Y-71480133D01*
X130184837Y-71480133D02*
X130137218Y-71446800D01*
X130137218Y-71446800D02*
X130113408Y-71413466D01*
X130113408Y-71413466D02*
X130089599Y-71346800D01*
X130089599Y-71346800D02*
X130089599Y-71146800D01*
X130089599Y-71146800D02*
X130113408Y-71080133D01*
X130113408Y-71080133D02*
X130137218Y-71046800D01*
X130137218Y-71046800D02*
X130184837Y-71013466D01*
X130184837Y-71013466D02*
X130280075Y-71013466D01*
X130280075Y-71013466D02*
X130327694Y-71046800D01*
X130922931Y-71480133D02*
X130922931Y-70780133D01*
X130922931Y-70780133D02*
X131041979Y-70780133D01*
X131041979Y-70780133D02*
X131113407Y-70813466D01*
X131113407Y-70813466D02*
X131161026Y-70880133D01*
X131161026Y-70880133D02*
X131184836Y-70946800D01*
X131184836Y-70946800D02*
X131208645Y-71080133D01*
X131208645Y-71080133D02*
X131208645Y-71180133D01*
X131208645Y-71180133D02*
X131184836Y-71313466D01*
X131184836Y-71313466D02*
X131161026Y-71380133D01*
X131161026Y-71380133D02*
X131113407Y-71446800D01*
X131113407Y-71446800D02*
X131041979Y-71480133D01*
X131041979Y-71480133D02*
X130922931Y-71480133D01*
X131494360Y-71480133D02*
X131446741Y-71446800D01*
X131446741Y-71446800D02*
X131422931Y-71413466D01*
X131422931Y-71413466D02*
X131399122Y-71346800D01*
X131399122Y-71346800D02*
X131399122Y-71146800D01*
X131399122Y-71146800D02*
X131422931Y-71080133D01*
X131422931Y-71080133D02*
X131446741Y-71046800D01*
X131446741Y-71046800D02*
X131494360Y-71013466D01*
X131494360Y-71013466D02*
X131565788Y-71013466D01*
X131565788Y-71013466D02*
X131613407Y-71046800D01*
X131613407Y-71046800D02*
X131637217Y-71080133D01*
X131637217Y-71080133D02*
X131661026Y-71146800D01*
X131661026Y-71146800D02*
X131661026Y-71346800D01*
X131661026Y-71346800D02*
X131637217Y-71413466D01*
X131637217Y-71413466D02*
X131613407Y-71446800D01*
X131613407Y-71446800D02*
X131565788Y-71480133D01*
X131565788Y-71480133D02*
X131494360Y-71480133D01*
D12*
X127875000Y-69000000D02*
X134625000Y-69000000D01*
X134625000Y-71750000D01*
X127875000Y-71750000D01*
X127875000Y-69000000D01*
D13*
%TO.P,J1,1,Pin_1*%
%TO.N,Net-(J1-Pin_1)*%
X145000000Y-80750000D03*
D14*
%TO.P,J1,2,Pin_2*%
%TO.N,Net-(J1-Pin_2)*%
X145000000Y-78750000D03*
%TD*%
D15*
%TO.P,Q4,1,S1*%
%TO.N,GND*%
X140750000Y-85405000D03*
%TO.P,Q4,2,G1*%
%TO.N,Net-(J1-Pin_1)*%
X140750000Y-84135000D03*
%TO.P,Q4,3,S2*%
%TO.N,GND*%
X140750000Y-82865000D03*
%TO.P,Q4,4,G2*%
%TO.N,Net-(J1-Pin_1)*%
X140750000Y-81595000D03*
%TO.P,Q4,5,D2*%
%TO.N,Net-(Q3A-D1-Pad7)*%
X135800000Y-81595000D03*
%TO.P,Q4,6,D2*%
X135800000Y-82865000D03*
%TO.P,Q4,7,D1*%
%TO.N,Net-(Q3B-D2-Pad5)*%
X135800000Y-84135000D03*
%TO.P,Q4,8,D1*%
X135800000Y-85405000D03*
%TD*%
%TO.P,Q3,1,S1*%
%TO.N,Net-(J2-Pin_1)*%
X140725000Y-78020000D03*
%TO.P,Q3,2,G1*%
%TO.N,Net-(J1-Pin_2)*%
X140725000Y-76750000D03*
%TO.P,Q3,3,S2*%
%TO.N,Net-(J2-Pin_1)*%
X140725000Y-75480000D03*
%TO.P,Q3,4,G2*%
%TO.N,Net-(J1-Pin_2)*%
X140725000Y-74210000D03*
%TO.P,Q3,5,D2*%
%TO.N,Net-(Q3B-D2-Pad5)*%
X135775000Y-74210000D03*
%TO.P,Q3,6,D2*%
X135775000Y-75480000D03*
%TO.P,Q3,7,D1*%
%TO.N,Net-(Q3A-D1-Pad7)*%
X135775000Y-76750000D03*
%TO.P,Q3,8,D1*%
X135775000Y-78020000D03*
%TD*%
%TO.P,Q2,1,S1*%
%TO.N,GND*%
X126935000Y-85725000D03*
%TO.P,Q2,2,G1*%
%TO.N,Net-(J1-Pin_1)*%
X126935000Y-84455000D03*
%TO.P,Q2,3,S2*%
%TO.N,GND*%
X126935000Y-83185000D03*
%TO.P,Q2,4,G2*%
%TO.N,Net-(J1-Pin_1)*%
X126935000Y-81915000D03*
%TO.P,Q2,5,D2*%
%TO.N,Net-(Q1A-D1-Pad7)*%
X121985000Y-81915000D03*
%TO.P,Q2,6,D2*%
X121985000Y-83185000D03*
%TO.P,Q2,7,D1*%
%TO.N,Net-(Q1B-D2-Pad5)*%
X121985000Y-84455000D03*
%TO.P,Q2,8,D1*%
X121985000Y-85725000D03*
%TD*%
D13*
%TO.P,J2,1,Pin_1*%
%TO.N,Net-(J2-Pin_1)*%
X145000000Y-75000000D03*
%TD*%
D15*
%TO.P,Q1,1,S1*%
%TO.N,Net-(J2-Pin_1)*%
X126935000Y-78105000D03*
%TO.P,Q1,2,G1*%
%TO.N,Net-(J1-Pin_2)*%
X126935000Y-76835000D03*
%TO.P,Q1,3,S2*%
%TO.N,Net-(J2-Pin_1)*%
X126935000Y-75565000D03*
%TO.P,Q1,4,G2*%
%TO.N,Net-(J1-Pin_2)*%
X126935000Y-74295000D03*
%TO.P,Q1,5,D2*%
%TO.N,Net-(Q1B-D2-Pad5)*%
X121985000Y-74295000D03*
%TO.P,Q1,6,D2*%
X121985000Y-75565000D03*
%TO.P,Q1,7,D1*%
%TO.N,Net-(Q1A-D1-Pad7)*%
X121985000Y-76835000D03*
%TO.P,Q1,8,D1*%
X121985000Y-78105000D03*
%TD*%
D13*
%TO.P,J3,1,Pin_1*%
%TO.N,GND*%
X145250000Y-84750000D03*
%TD*%
D16*
%TO.N,Net-(J1-Pin_1)*%
X138750000Y-83000000D03*
X124750000Y-83250000D03*
%TO.N,Net-(J1-Pin_2)*%
X138500000Y-75500000D03*
X124750000Y-75500000D03*
%TD*%
D17*
%TO.N,Net-(J1-Pin_1)*%
X139405000Y-81595000D02*
X138750000Y-82250000D01*
X124750000Y-82500000D02*
X124750000Y-83250000D01*
X125455000Y-84455000D02*
X126935000Y-84455000D01*
X138750000Y-83500000D02*
X139385000Y-84135000D01*
X124750000Y-83750000D02*
X125455000Y-84455000D01*
X138750000Y-83000000D02*
X138750000Y-83500000D01*
X126935000Y-81915000D02*
X125335000Y-81915000D01*
X138750000Y-82250000D02*
X138750000Y-83000000D01*
X124750000Y-83250000D02*
X124750000Y-83750000D01*
X140750000Y-81595000D02*
X139405000Y-81595000D01*
X125335000Y-81915000D02*
X124750000Y-82500000D01*
X139385000Y-84135000D02*
X140750000Y-84135000D01*
%TO.N,Net-(J1-Pin_2)*%
X125585000Y-76835000D02*
X126935000Y-76835000D01*
X138500000Y-76250000D02*
X139000000Y-76750000D01*
X124750000Y-75500000D02*
X124750000Y-76000000D01*
X124750000Y-75250000D02*
X124750000Y-75500000D01*
X140725000Y-74210000D02*
X139040000Y-74210000D01*
X139000000Y-76750000D02*
X140725000Y-76750000D01*
X139040000Y-74210000D02*
X138500000Y-74750000D01*
X125705000Y-74295000D02*
X124750000Y-75250000D01*
X124750000Y-76000000D02*
X125585000Y-76835000D01*
X126935000Y-74295000D02*
X125705000Y-74295000D01*
X138500000Y-74750000D02*
X138500000Y-75500000D01*
X138500000Y-75500000D02*
X138500000Y-76250000D01*
%TO.N,Net-(J2-Pin_1)*%
X140725000Y-75480000D02*
X141980000Y-75480000D01*
X142500000Y-77250000D02*
X141730000Y-78020000D01*
X131000000Y-73000000D02*
X142500000Y-73000000D01*
X127895000Y-78105000D02*
X126935000Y-78105000D01*
X142500000Y-76000000D02*
X142500000Y-77250000D01*
X126935000Y-75565000D02*
X128065000Y-75565000D01*
X128750000Y-76250000D02*
X128750000Y-77250000D01*
X143500000Y-75000000D02*
X145000000Y-75000000D01*
X128625000Y-76125000D02*
X128625000Y-75375000D01*
X141980000Y-75480000D02*
X142500000Y-76000000D01*
X142500000Y-76000000D02*
X143500000Y-75000000D01*
X128625000Y-75375000D02*
X131000000Y-73000000D01*
X128750000Y-77250000D02*
X127895000Y-78105000D01*
X128065000Y-75565000D02*
X128625000Y-76125000D01*
X128625000Y-76125000D02*
X128750000Y-76250000D01*
X144500000Y-75000000D02*
X145000000Y-75000000D01*
X141730000Y-78020000D02*
X140725000Y-78020000D01*
X142500000Y-73000000D02*
X144500000Y-75000000D01*
%TO.N,GND*%
X142750000Y-86250000D02*
X142750000Y-85500000D01*
X142750000Y-85500000D02*
X143500000Y-84750000D01*
X142095000Y-85405000D02*
X140750000Y-85405000D01*
X126935000Y-83185000D02*
X128435000Y-83185000D01*
X142250000Y-86750000D02*
X142750000Y-86250000D01*
X140750000Y-82865000D02*
X142115000Y-82865000D01*
X130500000Y-86750000D02*
X142250000Y-86750000D01*
X143500000Y-84750000D02*
X145250000Y-84750000D01*
X129000000Y-85250000D02*
X128525000Y-85725000D01*
X142750000Y-84750000D02*
X142095000Y-85405000D01*
X129000000Y-85250000D02*
X130500000Y-86750000D01*
X128435000Y-83185000D02*
X129000000Y-83750000D01*
X142115000Y-82865000D02*
X142750000Y-83500000D01*
X142750000Y-83500000D02*
X142750000Y-84750000D01*
X129000000Y-83750000D02*
X129000000Y-85250000D01*
X128525000Y-85725000D02*
X126935000Y-85725000D01*
X142750000Y-85500000D02*
X142750000Y-84750000D01*
%TO.N,Net-(Q1B-D2-Pad5)*%
X121960000Y-85750000D02*
X121985000Y-85725000D01*
X121985000Y-84455000D02*
X121985000Y-85725000D01*
X121985000Y-75565000D02*
X121920000Y-75500000D01*
X122000000Y-85740000D02*
X121985000Y-85725000D01*
X121985000Y-74295000D02*
X122000000Y-74280000D01*
%TO.N,Net-(Q1A-D1-Pad7)*%
X121985000Y-81915000D02*
X121985000Y-83185000D01*
X121820000Y-81750000D02*
X121985000Y-81915000D01*
X121985000Y-76835000D02*
X121985000Y-78105000D01*
%TO.N,Net-(Q3B-D2-Pad5)*%
X135775000Y-74210000D02*
X135775000Y-75480000D01*
X135800000Y-84135000D02*
X135800000Y-85405000D01*
%TO.N,Net-(Q3A-D1-Pad7)*%
X135800000Y-81595000D02*
X135800000Y-82865000D01*
X135775000Y-81570000D02*
X135800000Y-81595000D01*
X135775000Y-76750000D02*
X135775000Y-78020000D01*
%TD*%
%TA.AperFunction,Conductor*%
%TO.N,Net-(Q3A-D1-Pad7)*%
G36*
X134276694Y-76269685D02*
G01*
X134322449Y-76322489D01*
X134332393Y-76391647D01*
X134328732Y-76408594D01*
X134302899Y-76497511D01*
X134302704Y-76499998D01*
X134302705Y-76500000D01*
X135901000Y-76500000D01*
X135968039Y-76519685D01*
X136013794Y-76572489D01*
X136025000Y-76624000D01*
X136025000Y-78820000D01*
X136626000Y-78820000D01*
X136693039Y-78839685D01*
X136738794Y-78892489D01*
X136750000Y-78944000D01*
X136750000Y-80671000D01*
X136730315Y-80738039D01*
X136677511Y-80783794D01*
X136626000Y-80795000D01*
X136050000Y-80795000D01*
X136050000Y-82991000D01*
X136030315Y-83058039D01*
X135977511Y-83103794D01*
X135926000Y-83115000D01*
X134327705Y-83115000D01*
X134327703Y-83115001D01*
X134327804Y-83116275D01*
X134313438Y-83184652D01*
X134264385Y-83234407D01*
X134204186Y-83250000D01*
X133124000Y-83250000D01*
X133056961Y-83230315D01*
X133011206Y-83177511D01*
X133000000Y-83126000D01*
X133000000Y-82614998D01*
X134327704Y-82614998D01*
X134327705Y-82615000D01*
X135550000Y-82615000D01*
X135550000Y-81845000D01*
X134327705Y-81845000D01*
X134327704Y-81845001D01*
X134327899Y-81847486D01*
X134373718Y-82005198D01*
X134457314Y-82146552D01*
X134462100Y-82152722D01*
X134459753Y-82154542D01*
X134486564Y-82203642D01*
X134481580Y-82273334D01*
X134460541Y-82306069D01*
X134462100Y-82307278D01*
X134457314Y-82313447D01*
X134373718Y-82454801D01*
X134327899Y-82612513D01*
X134327704Y-82614998D01*
X133000000Y-82614998D01*
X133000000Y-81344998D01*
X134327704Y-81344998D01*
X134327705Y-81345000D01*
X135550000Y-81345000D01*
X135550000Y-80795000D01*
X134909356Y-80795000D01*
X134872510Y-80797899D01*
X134872504Y-80797900D01*
X134714806Y-80843716D01*
X134714803Y-80843717D01*
X134573447Y-80927314D01*
X134573438Y-80927321D01*
X134457321Y-81043438D01*
X134457314Y-81043447D01*
X134373718Y-81184801D01*
X134327899Y-81342513D01*
X134327704Y-81344998D01*
X133000000Y-81344998D01*
X133000000Y-78270001D01*
X134302704Y-78270001D01*
X134302899Y-78272486D01*
X134348718Y-78430198D01*
X134432314Y-78571552D01*
X134432321Y-78571561D01*
X134548438Y-78687678D01*
X134548447Y-78687685D01*
X134689803Y-78771282D01*
X134689806Y-78771283D01*
X134847504Y-78817099D01*
X134847510Y-78817100D01*
X134884356Y-78820000D01*
X135525000Y-78820000D01*
X135525000Y-78270000D01*
X134302705Y-78270000D01*
X134302704Y-78270001D01*
X133000000Y-78270001D01*
X133000000Y-77769998D01*
X134302704Y-77769998D01*
X134302705Y-77770000D01*
X135525000Y-77770000D01*
X135525000Y-77000000D01*
X134302705Y-77000000D01*
X134302704Y-77000001D01*
X134302899Y-77002486D01*
X134348718Y-77160198D01*
X134432314Y-77301552D01*
X134437100Y-77307722D01*
X134434753Y-77309542D01*
X134461564Y-77358642D01*
X134456580Y-77428334D01*
X134435541Y-77461069D01*
X134437100Y-77462278D01*
X134432314Y-77468447D01*
X134348718Y-77609801D01*
X134302899Y-77767513D01*
X134302704Y-77769998D01*
X133000000Y-77769998D01*
X133000000Y-76374000D01*
X133019685Y-76306961D01*
X133072489Y-76261206D01*
X133124000Y-76250000D01*
X134209655Y-76250000D01*
X134276694Y-76269685D01*
G37*
%TD.AperFunction*%
%TD*%
%TA.AperFunction,Conductor*%
%TO.N,Net-(Q1A-D1-Pad7)*%
G36*
X120452291Y-76519685D02*
G01*
X120475048Y-76545948D01*
X120475888Y-76545172D01*
X120512705Y-76585000D01*
X122111000Y-76585000D01*
X122178039Y-76604685D01*
X122223794Y-76657489D01*
X122235000Y-76709000D01*
X122235000Y-78905000D01*
X122876000Y-78905000D01*
X122943039Y-78924685D01*
X122988794Y-78977489D01*
X123000000Y-79029000D01*
X123000000Y-80991000D01*
X122980315Y-81058039D01*
X122927511Y-81103794D01*
X122876000Y-81115000D01*
X122235000Y-81115000D01*
X122235000Y-83311000D01*
X122215315Y-83378039D01*
X122162511Y-83423794D01*
X122111000Y-83435000D01*
X120512705Y-83435000D01*
X120512704Y-83435001D01*
X120512899Y-83437488D01*
X120557616Y-83591406D01*
X120557416Y-83661275D01*
X120519473Y-83719945D01*
X120455835Y-83748788D01*
X120438539Y-83750000D01*
X119374000Y-83750000D01*
X119306961Y-83730315D01*
X119261206Y-83677511D01*
X119250000Y-83626000D01*
X119250000Y-82934998D01*
X120512704Y-82934998D01*
X120512705Y-82935000D01*
X121735000Y-82935000D01*
X121735000Y-82165000D01*
X120512705Y-82165000D01*
X120512704Y-82165001D01*
X120512899Y-82167486D01*
X120558718Y-82325198D01*
X120642314Y-82466552D01*
X120647100Y-82472722D01*
X120644753Y-82474542D01*
X120671564Y-82523642D01*
X120666580Y-82593334D01*
X120645544Y-82626078D01*
X120647097Y-82627283D01*
X120642313Y-82633449D01*
X120558718Y-82774801D01*
X120512899Y-82932513D01*
X120512704Y-82934998D01*
X119250000Y-82934998D01*
X119250000Y-81664998D01*
X120512704Y-81664998D01*
X120512705Y-81665000D01*
X121735000Y-81665000D01*
X121735000Y-81115000D01*
X121094356Y-81115000D01*
X121057510Y-81117899D01*
X121057504Y-81117900D01*
X120899806Y-81163716D01*
X120899803Y-81163717D01*
X120758447Y-81247314D01*
X120758438Y-81247321D01*
X120642321Y-81363438D01*
X120642314Y-81363447D01*
X120558718Y-81504801D01*
X120512899Y-81662513D01*
X120512704Y-81664998D01*
X119250000Y-81664998D01*
X119250000Y-78355001D01*
X120512704Y-78355001D01*
X120512899Y-78357486D01*
X120558718Y-78515198D01*
X120642314Y-78656552D01*
X120642321Y-78656561D01*
X120758438Y-78772678D01*
X120758447Y-78772685D01*
X120899803Y-78856282D01*
X120899806Y-78856283D01*
X121057504Y-78902099D01*
X121057510Y-78902100D01*
X121094356Y-78905000D01*
X121735000Y-78905000D01*
X121735000Y-78355000D01*
X120512705Y-78355000D01*
X120512704Y-78355001D01*
X119250000Y-78355001D01*
X119250000Y-77854998D01*
X120512704Y-77854998D01*
X120512705Y-77855000D01*
X121735000Y-77855000D01*
X121735000Y-77085000D01*
X120512705Y-77085000D01*
X120512704Y-77085001D01*
X120512899Y-77087486D01*
X120558718Y-77245198D01*
X120642313Y-77386550D01*
X120647097Y-77392717D01*
X120644757Y-77394531D01*
X120671575Y-77443689D01*
X120666563Y-77513379D01*
X120645546Y-77546080D01*
X120647097Y-77547283D01*
X120642313Y-77553449D01*
X120558718Y-77694801D01*
X120512899Y-77852513D01*
X120512704Y-77854998D01*
X119250000Y-77854998D01*
X119250000Y-76624000D01*
X119269685Y-76556961D01*
X119322489Y-76511206D01*
X119374000Y-76500000D01*
X120385252Y-76500000D01*
X120452291Y-76519685D01*
G37*
%TD.AperFunction*%
%TD*%
%TA.AperFunction,Conductor*%
%TO.N,GND*%
G36*
X127317341Y-68519685D02*
G01*
X127363096Y-68572489D01*
X127373040Y-68641647D01*
X127352996Y-68689234D01*
X127354528Y-68690119D01*
X127350465Y-68697156D01*
X127289956Y-68843237D01*
X127289955Y-68843239D01*
X127269318Y-68999998D01*
X127269318Y-68999999D01*
X127273969Y-69035326D01*
X127274500Y-69043428D01*
X127274500Y-71706571D01*
X127273969Y-71714673D01*
X127269318Y-71749999D01*
X127269318Y-71750000D01*
X127274500Y-71789360D01*
X127289955Y-71906760D01*
X127289956Y-71906762D01*
X127350464Y-72052841D01*
X127446718Y-72178282D01*
X127572159Y-72274536D01*
X127718238Y-72335044D01*
X127796618Y-72345363D01*
X127874999Y-72355682D01*
X127875000Y-72355682D01*
X127910329Y-72351030D01*
X127918428Y-72350500D01*
X130462003Y-72350500D01*
X130529042Y-72370185D01*
X130574797Y-72422989D01*
X130584741Y-72492147D01*
X130557543Y-72553545D01*
X130538708Y-72576310D01*
X130534777Y-72580631D01*
X128622181Y-74493227D01*
X128560858Y-74526712D01*
X128491166Y-74521728D01*
X128435233Y-74479856D01*
X128410816Y-74414392D01*
X128410500Y-74405546D01*
X128410500Y-74079304D01*
X128407598Y-74042432D01*
X128407597Y-74042426D01*
X128361745Y-73884606D01*
X128361744Y-73884603D01*
X128361744Y-73884602D01*
X128278081Y-73743135D01*
X128278079Y-73743133D01*
X128278076Y-73743129D01*
X128161870Y-73626923D01*
X128161862Y-73626917D01*
X128020396Y-73543255D01*
X128020393Y-73543254D01*
X127862573Y-73497402D01*
X127862567Y-73497401D01*
X127825696Y-73494500D01*
X127825694Y-73494500D01*
X126044306Y-73494500D01*
X126044304Y-73494500D01*
X126007432Y-73497401D01*
X126007426Y-73497402D01*
X125849606Y-73543254D01*
X125849603Y-73543255D01*
X125708140Y-73626915D01*
X125708129Y-73626924D01*
X125699305Y-73635748D01*
X125637981Y-73669231D01*
X125615525Y-73672003D01*
X125606373Y-73672290D01*
X125587129Y-73677881D01*
X125568079Y-73681825D01*
X125548211Y-73684334D01*
X125504884Y-73701488D01*
X125499358Y-73703379D01*
X125454614Y-73716379D01*
X125454610Y-73716381D01*
X125437366Y-73726579D01*
X125419905Y-73735133D01*
X125401274Y-73742510D01*
X125401262Y-73742517D01*
X125363570Y-73769902D01*
X125358687Y-73773109D01*
X125318580Y-73796829D01*
X125304414Y-73810995D01*
X125289624Y-73823627D01*
X125273414Y-73835404D01*
X125273411Y-73835407D01*
X125243710Y-73871309D01*
X125239777Y-73875631D01*
X124497903Y-74617504D01*
X124460659Y-74643102D01*
X124297267Y-74715850D01*
X124297265Y-74715851D01*
X124144129Y-74827111D01*
X124017466Y-74967785D01*
X123922821Y-75131715D01*
X123922818Y-75131722D01*
X123864327Y-75311740D01*
X123864326Y-75311744D01*
X123844540Y-75500000D01*
X123864326Y-75688256D01*
X123864327Y-75688259D01*
X123922818Y-75868277D01*
X123922821Y-75868284D01*
X124017467Y-76032216D01*
X124048608Y-76066801D01*
X124132018Y-76159438D01*
X124155136Y-76196700D01*
X124156481Y-76200099D01*
X124158377Y-76205630D01*
X124171380Y-76250388D01*
X124181580Y-76267634D01*
X124190136Y-76285100D01*
X124194544Y-76296231D01*
X124197514Y-76303732D01*
X124224898Y-76341423D01*
X124228106Y-76346307D01*
X124251827Y-76386416D01*
X124251833Y-76386424D01*
X124265990Y-76400580D01*
X124278628Y-76415376D01*
X124290405Y-76431586D01*
X124290406Y-76431587D01*
X124326309Y-76461288D01*
X124330620Y-76465210D01*
X124916103Y-77050694D01*
X125084197Y-77218788D01*
X125094022Y-77231051D01*
X125094243Y-77230869D01*
X125099214Y-77236878D01*
X125123901Y-77260060D01*
X125149635Y-77284226D01*
X125170529Y-77305120D01*
X125176011Y-77309373D01*
X125180443Y-77313157D01*
X125214418Y-77345062D01*
X125231976Y-77354714D01*
X125248235Y-77365395D01*
X125264064Y-77377673D01*
X125306838Y-77396182D01*
X125312056Y-77398738D01*
X125352908Y-77421197D01*
X125372316Y-77426180D01*
X125390719Y-77432481D01*
X125409101Y-77440436D01*
X125409102Y-77440436D01*
X125409104Y-77440437D01*
X125455134Y-77447727D01*
X125460840Y-77448909D01*
X125468183Y-77450794D01*
X125528222Y-77486529D01*
X125559411Y-77549051D01*
X125551847Y-77618510D01*
X125544084Y-77634020D01*
X125508254Y-77694605D01*
X125508254Y-77694606D01*
X125462402Y-77852426D01*
X125462401Y-77852432D01*
X125459500Y-77889304D01*
X125459500Y-78320696D01*
X125462401Y-78357567D01*
X125462402Y-78357573D01*
X125508254Y-78515393D01*
X125508255Y-78515396D01*
X125508256Y-78515398D01*
X125535026Y-78560663D01*
X125591917Y-78656862D01*
X125591923Y-78656870D01*
X125708129Y-78773076D01*
X125708133Y-78773079D01*
X125708135Y-78773081D01*
X125849602Y-78856744D01*
X125891224Y-78868836D01*
X126007426Y-78902597D01*
X126007429Y-78902597D01*
X126007431Y-78902598D01*
X126019722Y-78903565D01*
X126044304Y-78905500D01*
X126044306Y-78905500D01*
X127825696Y-78905500D01*
X127844131Y-78904049D01*
X127862569Y-78902598D01*
X127862571Y-78902597D01*
X127862573Y-78902597D01*
X127904191Y-78890505D01*
X128020398Y-78856744D01*
X128161865Y-78773081D01*
X128278081Y-78656865D01*
X128342888Y-78547278D01*
X128354110Y-78531322D01*
X128355133Y-78530085D01*
X128356326Y-78528646D01*
X128360224Y-78524364D01*
X129133786Y-77750802D01*
X129146048Y-77740980D01*
X129145865Y-77740759D01*
X129151867Y-77735792D01*
X129151877Y-77735786D01*
X129199241Y-77685348D01*
X129220120Y-77664470D01*
X129224373Y-77658986D01*
X129228150Y-77654563D01*
X129260062Y-77620582D01*
X129261836Y-77617354D01*
X129263892Y-77615309D01*
X129264646Y-77614273D01*
X129264813Y-77614394D01*
X129311381Y-77568090D01*
X129379696Y-77553432D01*
X129445091Y-77578034D01*
X129486803Y-77634086D01*
X129494499Y-77677090D01*
X129494500Y-84462174D01*
X129494500Y-84462173D01*
X129495950Y-84489227D01*
X129495950Y-84489228D01*
X129500231Y-84529036D01*
X129508885Y-84582445D01*
X129508885Y-84582447D01*
X129555556Y-84707573D01*
X129559168Y-84717257D01*
X129592653Y-84778580D01*
X129678877Y-84893761D01*
X129678881Y-84893765D01*
X129678886Y-84893771D01*
X130297556Y-85512440D01*
X130865819Y-86080704D01*
X130865820Y-86080704D01*
X130885956Y-86098791D01*
X130885955Y-86098791D01*
X130917139Y-86123920D01*
X130920036Y-86126009D01*
X130961026Y-86155567D01*
X131091903Y-86215338D01*
X131134675Y-86227897D01*
X131158937Y-86235022D01*
X131158942Y-86235023D01*
X131158946Y-86235024D01*
X131301362Y-86255500D01*
X131301365Y-86255500D01*
X134201034Y-86255500D01*
X134201039Y-86255500D01*
X134327795Y-86239350D01*
X134387993Y-86223757D01*
X134506639Y-86176344D01*
X134506638Y-86176344D01*
X134514409Y-86173239D01*
X134514837Y-86174311D01*
X134567289Y-86160500D01*
X134709883Y-86160500D01*
X134744478Y-86165424D01*
X134872426Y-86202597D01*
X134872429Y-86202597D01*
X134872431Y-86202598D01*
X134884722Y-86203565D01*
X134909304Y-86205500D01*
X134909306Y-86205500D01*
X136690696Y-86205500D01*
X136709131Y-86204049D01*
X136727569Y-86202598D01*
X136727571Y-86202597D01*
X136727573Y-86202597D01*
X136769191Y-86190505D01*
X136885398Y-86156744D01*
X137026865Y-86073081D01*
X137143081Y-85956865D01*
X137226744Y-85815398D01*
X137272598Y-85657569D01*
X137272800Y-85655001D01*
X139277704Y-85655001D01*
X139277899Y-85657486D01*
X139323718Y-85815198D01*
X139407314Y-85956552D01*
X139407321Y-85956561D01*
X139523438Y-86072678D01*
X139523447Y-86072685D01*
X139664803Y-86156282D01*
X139664806Y-86156283D01*
X139822504Y-86202099D01*
X139822510Y-86202100D01*
X139859356Y-86205000D01*
X140500000Y-86205000D01*
X140500000Y-85655000D01*
X141000000Y-85655000D01*
X141000000Y-86205000D01*
X141640644Y-86205000D01*
X141677489Y-86202100D01*
X141677495Y-86202099D01*
X141835193Y-86156283D01*
X141835196Y-86156282D01*
X141976552Y-86072685D01*
X141976561Y-86072678D01*
X142092678Y-85956561D01*
X142092685Y-85956552D01*
X142176281Y-85815198D01*
X142222100Y-85657486D01*
X142222295Y-85655001D01*
X142222295Y-85655000D01*
X141000000Y-85655000D01*
X140500000Y-85655000D01*
X139277705Y-85655000D01*
X139277704Y-85655001D01*
X137272800Y-85655001D01*
X137275500Y-85620694D01*
X137275500Y-85472844D01*
X144075000Y-85472844D01*
X144081401Y-85532372D01*
X144081403Y-85532379D01*
X144131645Y-85667086D01*
X144131649Y-85667093D01*
X144217809Y-85782187D01*
X144217812Y-85782190D01*
X144332906Y-85868350D01*
X144332913Y-85868354D01*
X144467620Y-85918596D01*
X144467627Y-85918598D01*
X144527155Y-85924999D01*
X144527172Y-85925000D01*
X145000000Y-85925000D01*
X145000000Y-85065686D01*
X145011955Y-85077641D01*
X145124852Y-85135165D01*
X145218519Y-85150000D01*
X145281481Y-85150000D01*
X145375148Y-85135165D01*
X145488045Y-85077641D01*
X145500000Y-85065686D01*
X145500000Y-85925000D01*
X145972828Y-85925000D01*
X145972844Y-85924999D01*
X146032372Y-85918598D01*
X146032379Y-85918596D01*
X146167086Y-85868354D01*
X146167093Y-85868350D01*
X146282187Y-85782190D01*
X146282190Y-85782187D01*
X146368350Y-85667093D01*
X146368354Y-85667086D01*
X146418596Y-85532379D01*
X146418598Y-85532372D01*
X146424999Y-85472844D01*
X146425000Y-85472827D01*
X146425000Y-85000000D01*
X145565686Y-85000000D01*
X145577641Y-84988045D01*
X145635165Y-84875148D01*
X145654986Y-84750000D01*
X145635165Y-84624852D01*
X145577641Y-84511955D01*
X145565686Y-84500000D01*
X146425000Y-84500000D01*
X146425000Y-84027172D01*
X146424999Y-84027155D01*
X146418598Y-83967627D01*
X146418596Y-83967620D01*
X146368354Y-83832913D01*
X146368350Y-83832906D01*
X146282190Y-83717812D01*
X146282187Y-83717809D01*
X146167093Y-83631649D01*
X146167086Y-83631645D01*
X146032379Y-83581403D01*
X146032372Y-83581401D01*
X145972844Y-83575000D01*
X145500000Y-83575000D01*
X145500000Y-84434313D01*
X145488045Y-84422359D01*
X145375148Y-84364835D01*
X145281481Y-84350000D01*
X145218519Y-84350000D01*
X145124852Y-84364835D01*
X145011955Y-84422359D01*
X145000000Y-84434313D01*
X145000000Y-83575000D01*
X144527155Y-83575000D01*
X144467627Y-83581401D01*
X144467620Y-83581403D01*
X144332913Y-83631645D01*
X144332906Y-83631649D01*
X144217812Y-83717809D01*
X144217809Y-83717812D01*
X144131649Y-83832906D01*
X144131645Y-83832913D01*
X144081403Y-83967620D01*
X144081401Y-83967627D01*
X144075000Y-84027155D01*
X144075000Y-84500000D01*
X144934314Y-84500000D01*
X144922359Y-84511955D01*
X144864835Y-84624852D01*
X144845014Y-84750000D01*
X144864835Y-84875148D01*
X144922359Y-84988045D01*
X144934314Y-85000000D01*
X144075000Y-85000000D01*
X144075000Y-85472844D01*
X137275500Y-85472844D01*
X137275500Y-85189306D01*
X137272598Y-85152431D01*
X137242433Y-85048605D01*
X137233014Y-85016183D01*
X137226744Y-84994602D01*
X137143081Y-84853135D01*
X137143078Y-84853132D01*
X137138298Y-84846969D01*
X137140742Y-84845072D01*
X137114142Y-84796357D01*
X137119126Y-84726665D01*
X137139944Y-84694307D01*
X137138298Y-84693031D01*
X137143075Y-84686870D01*
X137143081Y-84686865D01*
X137226744Y-84545398D01*
X137260505Y-84429191D01*
X137272597Y-84387573D01*
X137272598Y-84387567D01*
X137275500Y-84350696D01*
X137275500Y-83919304D01*
X137272598Y-83882432D01*
X137272597Y-83882426D01*
X137234236Y-83750388D01*
X137226744Y-83724602D01*
X137143081Y-83583135D01*
X137143078Y-83583132D01*
X137138298Y-83576969D01*
X137140750Y-83575066D01*
X137114155Y-83526421D01*
X137119104Y-83456726D01*
X137139940Y-83424304D01*
X137138298Y-83423031D01*
X137143075Y-83416870D01*
X137143081Y-83416865D01*
X137226744Y-83275398D01*
X137272598Y-83117569D01*
X137275500Y-83080694D01*
X137275500Y-83000000D01*
X137844540Y-83000000D01*
X137864326Y-83188256D01*
X137864327Y-83188259D01*
X137922818Y-83368277D01*
X137922821Y-83368284D01*
X138017467Y-83532216D01*
X138086347Y-83608715D01*
X138132018Y-83659438D01*
X138155136Y-83696700D01*
X138156481Y-83700099D01*
X138158377Y-83705630D01*
X138171380Y-83750388D01*
X138181580Y-83767634D01*
X138190138Y-83785103D01*
X138197514Y-83803732D01*
X138224898Y-83841423D01*
X138228106Y-83846307D01*
X138251827Y-83886416D01*
X138251833Y-83886424D01*
X138265990Y-83900580D01*
X138278627Y-83915375D01*
X138290406Y-83931587D01*
X138319469Y-83955630D01*
X138326309Y-83961288D01*
X138330620Y-83965210D01*
X138715410Y-84350000D01*
X138884194Y-84518784D01*
X138894019Y-84531048D01*
X138894240Y-84530866D01*
X138899210Y-84536873D01*
X138899213Y-84536876D01*
X138899214Y-84536877D01*
X138949651Y-84584241D01*
X138970530Y-84605120D01*
X138976004Y-84609366D01*
X138980442Y-84613156D01*
X139014418Y-84645062D01*
X139014422Y-84645064D01*
X139031973Y-84654713D01*
X139048231Y-84665392D01*
X139064064Y-84677674D01*
X139085293Y-84686860D01*
X139106837Y-84696183D01*
X139112081Y-84698752D01*
X139152908Y-84721197D01*
X139172312Y-84726179D01*
X139190710Y-84732478D01*
X139209105Y-84740438D01*
X139255129Y-84747726D01*
X139260828Y-84748905D01*
X139281719Y-84754270D01*
X139341755Y-84790010D01*
X139372939Y-84852535D01*
X139365369Y-84921993D01*
X139357610Y-84937493D01*
X139323718Y-84994802D01*
X139277899Y-85152513D01*
X139277704Y-85154998D01*
X139277705Y-85155000D01*
X142222295Y-85155000D01*
X142222295Y-85154998D01*
X142222100Y-85152513D01*
X142176281Y-84994801D01*
X142092685Y-84853447D01*
X142087900Y-84847278D01*
X142090366Y-84845364D01*
X142063802Y-84796776D01*
X142068749Y-84727082D01*
X142089856Y-84694232D01*
X142088301Y-84693026D01*
X142093077Y-84686868D01*
X142093081Y-84686865D01*
X142176744Y-84545398D01*
X142210505Y-84429191D01*
X142222597Y-84387573D01*
X142222598Y-84387567D01*
X142225500Y-84350696D01*
X142225500Y-83919304D01*
X142222598Y-83882432D01*
X142222597Y-83882426D01*
X142184236Y-83750388D01*
X142176744Y-83724602D01*
X142093081Y-83583135D01*
X142093078Y-83583132D01*
X142088298Y-83576969D01*
X142090635Y-83575155D01*
X142063798Y-83526050D01*
X142068756Y-83456356D01*
X142089554Y-83423998D01*
X142087903Y-83422717D01*
X142092686Y-83416550D01*
X142176281Y-83275198D01*
X142222100Y-83117486D01*
X142222295Y-83115001D01*
X142222295Y-83115000D01*
X140624000Y-83115000D01*
X140556961Y-83095315D01*
X140511206Y-83042511D01*
X140500000Y-82991000D01*
X140500000Y-82739000D01*
X140519685Y-82671961D01*
X140572489Y-82626206D01*
X140624000Y-82615000D01*
X142222295Y-82615000D01*
X142222295Y-82614998D01*
X142222100Y-82612513D01*
X142176281Y-82454801D01*
X142092685Y-82313447D01*
X142087900Y-82307278D01*
X142090366Y-82305364D01*
X142063802Y-82256776D01*
X142068749Y-82187082D01*
X142089856Y-82154232D01*
X142088301Y-82153026D01*
X142093077Y-82146868D01*
X142093081Y-82146865D01*
X142176744Y-82005398D01*
X142222598Y-81847569D01*
X142225500Y-81810694D01*
X142225500Y-81379306D01*
X142224178Y-81362514D01*
X142222598Y-81342432D01*
X142222597Y-81342426D01*
X142176745Y-81184606D01*
X142176744Y-81184603D01*
X142176744Y-81184602D01*
X142093081Y-81043135D01*
X142093079Y-81043133D01*
X142093076Y-81043129D01*
X141976870Y-80926923D01*
X141976862Y-80926917D01*
X141835396Y-80843255D01*
X141835393Y-80843254D01*
X141677573Y-80797402D01*
X141677567Y-80797401D01*
X141640696Y-80794500D01*
X141640694Y-80794500D01*
X139859306Y-80794500D01*
X139859304Y-80794500D01*
X139822432Y-80797401D01*
X139822426Y-80797402D01*
X139664606Y-80843254D01*
X139664603Y-80843255D01*
X139523137Y-80926917D01*
X139523126Y-80926925D01*
X139518034Y-80932018D01*
X139456709Y-80965500D01*
X139434254Y-80968272D01*
X139399447Y-80969366D01*
X139395186Y-80969500D01*
X139365649Y-80969500D01*
X139358766Y-80970369D01*
X139352949Y-80970826D01*
X139306373Y-80972290D01*
X139287129Y-80977881D01*
X139268079Y-80981825D01*
X139248211Y-80984334D01*
X139204884Y-81001488D01*
X139199358Y-81003379D01*
X139154614Y-81016379D01*
X139154610Y-81016381D01*
X139137366Y-81026579D01*
X139119905Y-81035133D01*
X139101274Y-81042510D01*
X139101262Y-81042517D01*
X139063570Y-81069902D01*
X139058687Y-81073109D01*
X139018580Y-81096829D01*
X139004414Y-81110995D01*
X138989624Y-81123627D01*
X138973414Y-81135404D01*
X138973411Y-81135407D01*
X138943710Y-81171309D01*
X138939777Y-81175631D01*
X138366208Y-81749199D01*
X138353951Y-81759020D01*
X138354134Y-81759241D01*
X138348123Y-81764213D01*
X138300772Y-81814636D01*
X138279889Y-81835519D01*
X138279877Y-81835532D01*
X138275621Y-81841017D01*
X138271837Y-81845447D01*
X138239937Y-81879418D01*
X138239936Y-81879420D01*
X138230284Y-81896976D01*
X138219610Y-81913226D01*
X138207329Y-81929061D01*
X138207324Y-81929068D01*
X138188815Y-81971838D01*
X138186245Y-81977084D01*
X138163803Y-82017906D01*
X138158822Y-82037307D01*
X138152521Y-82055710D01*
X138144562Y-82074102D01*
X138144561Y-82074105D01*
X138137271Y-82120127D01*
X138136087Y-82125846D01*
X138124501Y-82170972D01*
X138124500Y-82170982D01*
X138124500Y-82191016D01*
X138122973Y-82210415D01*
X138119840Y-82230194D01*
X138119840Y-82230195D01*
X138124225Y-82276583D01*
X138124500Y-82282421D01*
X138124500Y-82301312D01*
X138104815Y-82368351D01*
X138092650Y-82384284D01*
X138017466Y-82467784D01*
X137922821Y-82631715D01*
X137922818Y-82631722D01*
X137864327Y-82811740D01*
X137864326Y-82811744D01*
X137844540Y-83000000D01*
X137275500Y-83000000D01*
X137275500Y-82649306D01*
X137272598Y-82612431D01*
X137268670Y-82598912D01*
X137234180Y-82480196D01*
X137226744Y-82454602D01*
X137143081Y-82313135D01*
X137143078Y-82313132D01*
X137138298Y-82306969D01*
X137140750Y-82305066D01*
X137114155Y-82256421D01*
X137119104Y-82186726D01*
X137139940Y-82154304D01*
X137138298Y-82153031D01*
X137143075Y-82146870D01*
X137143081Y-82146865D01*
X137226744Y-82005398D01*
X137272598Y-81847569D01*
X137275500Y-81810694D01*
X137275500Y-81379306D01*
X137274178Y-81362514D01*
X137272598Y-81342432D01*
X137272597Y-81342426D01*
X137226745Y-81184606D01*
X137226744Y-81184603D01*
X137226744Y-81184602D01*
X137174891Y-81096923D01*
X137157709Y-81029203D01*
X137168830Y-80982294D01*
X137215338Y-80880459D01*
X137235023Y-80813420D01*
X137235024Y-80813416D01*
X137255500Y-80671000D01*
X137255500Y-78944000D01*
X137243947Y-78836544D01*
X137232741Y-78785033D01*
X137221081Y-78750000D01*
X137198615Y-78682499D01*
X137163947Y-78628556D01*
X137144262Y-78561516D01*
X137161530Y-78498395D01*
X137201744Y-78430398D01*
X137247598Y-78272569D01*
X137250500Y-78235694D01*
X137250500Y-77804306D01*
X137247598Y-77767431D01*
X137242768Y-77750807D01*
X137201745Y-77609606D01*
X137201744Y-77609603D01*
X137201744Y-77609602D01*
X137118081Y-77468135D01*
X137118078Y-77468132D01*
X137113298Y-77461969D01*
X137115750Y-77460066D01*
X137089155Y-77411421D01*
X137094104Y-77341726D01*
X137114940Y-77309304D01*
X137113298Y-77308031D01*
X137118075Y-77301870D01*
X137118081Y-77301865D01*
X137201744Y-77160398D01*
X137247598Y-77002569D01*
X137250500Y-76965694D01*
X137250500Y-76534306D01*
X137247598Y-76497431D01*
X137237097Y-76461288D01*
X137201745Y-76339606D01*
X137201744Y-76339603D01*
X137201744Y-76339602D01*
X137118081Y-76198135D01*
X137118078Y-76198132D01*
X137113298Y-76191969D01*
X137115750Y-76190066D01*
X137089155Y-76141421D01*
X137094104Y-76071726D01*
X137114940Y-76039304D01*
X137113298Y-76038031D01*
X137118075Y-76031870D01*
X137118081Y-76031865D01*
X137201744Y-75890398D01*
X137247598Y-75732569D01*
X137250500Y-75695694D01*
X137250500Y-75264306D01*
X137247598Y-75227431D01*
X137201744Y-75069602D01*
X137118081Y-74928135D01*
X137118078Y-74928132D01*
X137113298Y-74921969D01*
X137115750Y-74920066D01*
X137089155Y-74871421D01*
X137094104Y-74801726D01*
X137114940Y-74769304D01*
X137113298Y-74768031D01*
X137118075Y-74761870D01*
X137118081Y-74761865D01*
X137201744Y-74620398D01*
X137247598Y-74462569D01*
X137249049Y-74444131D01*
X137250500Y-74425696D01*
X137250500Y-73994304D01*
X137247598Y-73957432D01*
X137247597Y-73957426D01*
X137212146Y-73835404D01*
X137201744Y-73799602D01*
X137201741Y-73799597D01*
X137201377Y-73798754D01*
X137201287Y-73798027D01*
X137199568Y-73792110D01*
X137200522Y-73791832D01*
X137192813Y-73729411D01*
X137223099Y-73666446D01*
X137282618Y-73629850D01*
X137315175Y-73625500D01*
X138440546Y-73625500D01*
X138507585Y-73645185D01*
X138553340Y-73697989D01*
X138563284Y-73767147D01*
X138534259Y-73830703D01*
X138528227Y-73837181D01*
X138116208Y-74249199D01*
X138103951Y-74259020D01*
X138104134Y-74259241D01*
X138098123Y-74264213D01*
X138050772Y-74314636D01*
X138029889Y-74335519D01*
X138029877Y-74335532D01*
X138025621Y-74341017D01*
X138021837Y-74345447D01*
X137989937Y-74379418D01*
X137989936Y-74379420D01*
X137980284Y-74396976D01*
X137969610Y-74413226D01*
X137957329Y-74429061D01*
X137957324Y-74429068D01*
X137938815Y-74471838D01*
X137936245Y-74477084D01*
X137913803Y-74517906D01*
X137908822Y-74537307D01*
X137902521Y-74555710D01*
X137894562Y-74574102D01*
X137894561Y-74574105D01*
X137887271Y-74620127D01*
X137886087Y-74625846D01*
X137874501Y-74670972D01*
X137874500Y-74670982D01*
X137874500Y-74691016D01*
X137872973Y-74710415D01*
X137869840Y-74730194D01*
X137869840Y-74730195D01*
X137874225Y-74776583D01*
X137874500Y-74782421D01*
X137874500Y-74801312D01*
X137854815Y-74868351D01*
X137842650Y-74884284D01*
X137767466Y-74967784D01*
X137672821Y-75131715D01*
X137672818Y-75131722D01*
X137614327Y-75311740D01*
X137614326Y-75311744D01*
X137594540Y-75500000D01*
X137614326Y-75688256D01*
X137614327Y-75688259D01*
X137672818Y-75868277D01*
X137672821Y-75868284D01*
X137767467Y-76032216D01*
X137798608Y-76066801D01*
X137840595Y-76113433D01*
X137870825Y-76176425D01*
X137872384Y-76192508D01*
X137874500Y-76259813D01*
X137874500Y-76289343D01*
X137874501Y-76289360D01*
X137875368Y-76296231D01*
X137875826Y-76302050D01*
X137877290Y-76348624D01*
X137877291Y-76348627D01*
X137882880Y-76367867D01*
X137886824Y-76386911D01*
X137889336Y-76406792D01*
X137899153Y-76431587D01*
X137906490Y-76450119D01*
X137908382Y-76455647D01*
X137921381Y-76500388D01*
X137931580Y-76517634D01*
X137940138Y-76535103D01*
X137947514Y-76553732D01*
X137974898Y-76591423D01*
X137978106Y-76596307D01*
X138001827Y-76636416D01*
X138001833Y-76636424D01*
X138015990Y-76650580D01*
X138028628Y-76665376D01*
X138040405Y-76681586D01*
X138040406Y-76681587D01*
X138076309Y-76711288D01*
X138080620Y-76715210D01*
X138331104Y-76965694D01*
X138499194Y-77133784D01*
X138509019Y-77146048D01*
X138509240Y-77145866D01*
X138514210Y-77151873D01*
X138514213Y-77151876D01*
X138514214Y-77151877D01*
X138564651Y-77199241D01*
X138582987Y-77217577D01*
X138585529Y-77220119D01*
X138591004Y-77224366D01*
X138595444Y-77228158D01*
X138600527Y-77232932D01*
X138629415Y-77260060D01*
X138629417Y-77260061D01*
X138629418Y-77260062D01*
X138646976Y-77269714D01*
X138663237Y-77280396D01*
X138679064Y-77292673D01*
X138721823Y-77311176D01*
X138727073Y-77313748D01*
X138754851Y-77329019D01*
X138767908Y-77336197D01*
X138767912Y-77336198D01*
X138787311Y-77341179D01*
X138805722Y-77347483D01*
X138824097Y-77355435D01*
X138824100Y-77355435D01*
X138824105Y-77355438D01*
X138870149Y-77362729D01*
X138875832Y-77363906D01*
X138920981Y-77375500D01*
X138941016Y-77375500D01*
X138960413Y-77377026D01*
X138980196Y-77380160D01*
X139026583Y-77375775D01*
X139032422Y-77375500D01*
X139219308Y-77375500D01*
X139286347Y-77395185D01*
X139332102Y-77447989D01*
X139342046Y-77517147D01*
X139326041Y-77562620D01*
X139298254Y-77609605D01*
X139298254Y-77609606D01*
X139252402Y-77767426D01*
X139252401Y-77767432D01*
X139249500Y-77804304D01*
X139249500Y-78235696D01*
X139252401Y-78272567D01*
X139252402Y-78272573D01*
X139298254Y-78430393D01*
X139298255Y-78430396D01*
X139298256Y-78430398D01*
X139306116Y-78443689D01*
X139381917Y-78571862D01*
X139381923Y-78571870D01*
X139498129Y-78688076D01*
X139498133Y-78688079D01*
X139498135Y-78688081D01*
X139639602Y-78771744D01*
X139681224Y-78783836D01*
X139797426Y-78817597D01*
X139797429Y-78817597D01*
X139797431Y-78817598D01*
X139809722Y-78818565D01*
X139834304Y-78820500D01*
X139834306Y-78820500D01*
X141615696Y-78820500D01*
X141634131Y-78819049D01*
X141652569Y-78817598D01*
X141652571Y-78817597D01*
X141652573Y-78817597D01*
X141694191Y-78805505D01*
X141810398Y-78771744D01*
X141847165Y-78750000D01*
X143819464Y-78750000D01*
X143839564Y-78966918D01*
X143839564Y-78966920D01*
X143839565Y-78966923D01*
X143857230Y-79029009D01*
X143899184Y-79176462D01*
X143996288Y-79371472D01*
X144077747Y-79479341D01*
X144102439Y-79544702D01*
X144087874Y-79613037D01*
X144053105Y-79653334D01*
X143967452Y-79717455D01*
X143881206Y-79832664D01*
X143881202Y-79832671D01*
X143830908Y-79967517D01*
X143824501Y-80027116D01*
X143824501Y-80027123D01*
X143824500Y-80027135D01*
X143824500Y-81472870D01*
X143824501Y-81472876D01*
X143830908Y-81532483D01*
X143881202Y-81667328D01*
X143881206Y-81667335D01*
X143967452Y-81782544D01*
X143967455Y-81782547D01*
X144082664Y-81868793D01*
X144082671Y-81868797D01*
X144217517Y-81919091D01*
X144217516Y-81919091D01*
X144224444Y-81919835D01*
X144277127Y-81925500D01*
X145722872Y-81925499D01*
X145782483Y-81919091D01*
X145917331Y-81868796D01*
X146032546Y-81782546D01*
X146118796Y-81667331D01*
X146169091Y-81532483D01*
X146175500Y-81472873D01*
X146175499Y-80027128D01*
X146169091Y-79967517D01*
X146118796Y-79832669D01*
X146118795Y-79832668D01*
X146118793Y-79832664D01*
X146032547Y-79717455D01*
X146032544Y-79717452D01*
X145946895Y-79653335D01*
X145905024Y-79597402D01*
X145900040Y-79527710D01*
X145922251Y-79479344D01*
X146003712Y-79371472D01*
X146100817Y-79176459D01*
X146160435Y-78966923D01*
X146180536Y-78750000D01*
X146160435Y-78533077D01*
X146100817Y-78323541D01*
X146003712Y-78128528D01*
X145872427Y-77954678D01*
X145711432Y-77807912D01*
X145711428Y-77807909D01*
X145711423Y-77807906D01*
X145526213Y-77693229D01*
X145526207Y-77693226D01*
X145431880Y-77656684D01*
X145323069Y-77614530D01*
X145108926Y-77574500D01*
X144891074Y-77574500D01*
X144676931Y-77614530D01*
X144661307Y-77620583D01*
X144473792Y-77693226D01*
X144473786Y-77693229D01*
X144288576Y-77807906D01*
X144288566Y-77807913D01*
X144127574Y-77954676D01*
X143996288Y-78128527D01*
X143899184Y-78323537D01*
X143899182Y-78323541D01*
X143899183Y-78323541D01*
X143842101Y-78524166D01*
X143839564Y-78533081D01*
X143819464Y-78749999D01*
X143819464Y-78750000D01*
X141847165Y-78750000D01*
X141951865Y-78688081D01*
X142068081Y-78571865D01*
X142074706Y-78560661D01*
X142111204Y-78524166D01*
X142110259Y-78522948D01*
X142116411Y-78518174D01*
X142116420Y-78518170D01*
X142130589Y-78503999D01*
X142145379Y-78491368D01*
X142161587Y-78479594D01*
X142191299Y-78443676D01*
X142195212Y-78439376D01*
X142883787Y-77750802D01*
X142896042Y-77740986D01*
X142895859Y-77740764D01*
X142901866Y-77735792D01*
X142901877Y-77735786D01*
X142932775Y-77702882D01*
X142949227Y-77685364D01*
X142959671Y-77674918D01*
X142970120Y-77664471D01*
X142974379Y-77658978D01*
X142978152Y-77654561D01*
X143010062Y-77620582D01*
X143019713Y-77603024D01*
X143030396Y-77586761D01*
X143042673Y-77570936D01*
X143061185Y-77528153D01*
X143063738Y-77522941D01*
X143086197Y-77482092D01*
X143091180Y-77462680D01*
X143097481Y-77444280D01*
X143105437Y-77425896D01*
X143112729Y-77379852D01*
X143113906Y-77374171D01*
X143125500Y-77329019D01*
X143125500Y-77308982D01*
X143127027Y-77289582D01*
X143130160Y-77269804D01*
X143125775Y-77223415D01*
X143125500Y-77217577D01*
X143125500Y-76310452D01*
X143145185Y-76243413D01*
X143161819Y-76222771D01*
X143384980Y-75999610D01*
X143632320Y-75752269D01*
X143693641Y-75718786D01*
X143763332Y-75723770D01*
X143819266Y-75765641D01*
X143836181Y-75796619D01*
X143881202Y-75917328D01*
X143881206Y-75917335D01*
X143967452Y-76032544D01*
X143967455Y-76032547D01*
X144082664Y-76118793D01*
X144082671Y-76118797D01*
X144217517Y-76169091D01*
X144217516Y-76169091D01*
X144224444Y-76169835D01*
X144277127Y-76175500D01*
X145722872Y-76175499D01*
X145782483Y-76169091D01*
X145917331Y-76118796D01*
X146032546Y-76032546D01*
X146118796Y-75917331D01*
X146169091Y-75782483D01*
X146175500Y-75722873D01*
X146175499Y-74277128D01*
X146169091Y-74217517D01*
X146118796Y-74082669D01*
X146118795Y-74082668D01*
X146118793Y-74082664D01*
X146032547Y-73967455D01*
X146032544Y-73967452D01*
X145917335Y-73881206D01*
X145917328Y-73881202D01*
X145782482Y-73830908D01*
X145782483Y-73830908D01*
X145722883Y-73824501D01*
X145722881Y-73824500D01*
X145722873Y-73824500D01*
X145722864Y-73824500D01*
X144277129Y-73824500D01*
X144277123Y-73824501D01*
X144274680Y-73824764D01*
X144274116Y-73824662D01*
X144273805Y-73824679D01*
X144273801Y-73824605D01*
X144205921Y-73812357D01*
X144173746Y-73789155D01*
X143000803Y-72616212D01*
X142990980Y-72603950D01*
X142990759Y-72604134D01*
X142985786Y-72598123D01*
X142967159Y-72580631D01*
X142935364Y-72550773D01*
X142924919Y-72540328D01*
X142914475Y-72529883D01*
X142908986Y-72525625D01*
X142904561Y-72521847D01*
X142870582Y-72489938D01*
X142870580Y-72489936D01*
X142870577Y-72489935D01*
X142853029Y-72480288D01*
X142836763Y-72469604D01*
X142820933Y-72457325D01*
X142778168Y-72438818D01*
X142772922Y-72436248D01*
X142732093Y-72413803D01*
X142732092Y-72413802D01*
X142712693Y-72408822D01*
X142694281Y-72402518D01*
X142675898Y-72394562D01*
X142675892Y-72394560D01*
X142629874Y-72387272D01*
X142624152Y-72386087D01*
X142579021Y-72374500D01*
X142579019Y-72374500D01*
X142558984Y-72374500D01*
X142539586Y-72372973D01*
X142532162Y-72371797D01*
X142519805Y-72369840D01*
X142519804Y-72369840D01*
X142473416Y-72374225D01*
X142467578Y-72374500D01*
X135154165Y-72374500D01*
X135087126Y-72354815D01*
X135041371Y-72302011D01*
X135031427Y-72232853D01*
X135055787Y-72175017D01*
X135149536Y-72052841D01*
X135210044Y-71906762D01*
X135225500Y-71789361D01*
X135230682Y-71750000D01*
X135226030Y-71714669D01*
X135225500Y-71706571D01*
X135225500Y-69043427D01*
X135226031Y-69035326D01*
X135230682Y-69000000D01*
X135230682Y-68999998D01*
X135210044Y-68843239D01*
X135210044Y-68843238D01*
X135149536Y-68697159D01*
X135149534Y-68697156D01*
X135145472Y-68690119D01*
X135147293Y-68689067D01*
X135126128Y-68634314D01*
X135140168Y-68565870D01*
X135188983Y-68515881D01*
X135249698Y-68500000D01*
X147126000Y-68500000D01*
X147193039Y-68519685D01*
X147238794Y-68572489D01*
X147250000Y-68624000D01*
X147250000Y-89376000D01*
X147230315Y-89443039D01*
X147177511Y-89488794D01*
X147126000Y-89500000D01*
X115624000Y-89500000D01*
X115556961Y-89480315D01*
X115511206Y-89427511D01*
X115500000Y-89376000D01*
X115500000Y-73624002D01*
X115994499Y-73624002D01*
X115994500Y-79967516D01*
X115994500Y-86126000D01*
X115994501Y-86126009D01*
X116006052Y-86233450D01*
X116006054Y-86233462D01*
X116017260Y-86284972D01*
X116051383Y-86387497D01*
X116051386Y-86387503D01*
X116129171Y-86508537D01*
X116129179Y-86508548D01*
X116174923Y-86561340D01*
X116174926Y-86561343D01*
X116174930Y-86561347D01*
X116283664Y-86655567D01*
X116283667Y-86655568D01*
X116283668Y-86655569D01*
X116401109Y-86709204D01*
X116414541Y-86715338D01*
X116459357Y-86728497D01*
X116481575Y-86735022D01*
X116481580Y-86735023D01*
X116481584Y-86735024D01*
X116624000Y-86755500D01*
X116624003Y-86755500D01*
X120435760Y-86755500D01*
X120435761Y-86755500D01*
X120453434Y-86754882D01*
X120479551Y-86753051D01*
X120514729Y-86749346D01*
X120631783Y-86715338D01*
X120652886Y-86709207D01*
X120652886Y-86709206D01*
X120652896Y-86709204D01*
X120716535Y-86680360D01*
X120837794Y-86602919D01*
X120885999Y-86547607D01*
X120944884Y-86510002D01*
X121014074Y-86510002D01*
X121057426Y-86522597D01*
X121057429Y-86522597D01*
X121057431Y-86522598D01*
X121069722Y-86523565D01*
X121094304Y-86525500D01*
X121094306Y-86525500D01*
X122875696Y-86525500D01*
X122894131Y-86524049D01*
X122912569Y-86522598D01*
X122912571Y-86522597D01*
X122912573Y-86522597D01*
X122960967Y-86508537D01*
X123070398Y-86476744D01*
X123211865Y-86393081D01*
X123328081Y-86276865D01*
X123411744Y-86135398D01*
X123457598Y-85977569D01*
X123457800Y-85975001D01*
X125462704Y-85975001D01*
X125462899Y-85977486D01*
X125508718Y-86135198D01*
X125592314Y-86276552D01*
X125592321Y-86276561D01*
X125708438Y-86392678D01*
X125708447Y-86392685D01*
X125849803Y-86476282D01*
X125849806Y-86476283D01*
X126007504Y-86522099D01*
X126007510Y-86522100D01*
X126044356Y-86525000D01*
X126685000Y-86525000D01*
X126685000Y-86524999D01*
X127184999Y-86524999D01*
X127185000Y-86525000D01*
X127825644Y-86525000D01*
X127862489Y-86522100D01*
X127862495Y-86522099D01*
X128020193Y-86476283D01*
X128020196Y-86476282D01*
X128161552Y-86392685D01*
X128161561Y-86392678D01*
X128277678Y-86276561D01*
X128277685Y-86276552D01*
X128361281Y-86135198D01*
X128407100Y-85977486D01*
X128407295Y-85975001D01*
X128407295Y-85975000D01*
X127185000Y-85975000D01*
X127184999Y-86524999D01*
X126685000Y-86524999D01*
X126685000Y-85975000D01*
X125462705Y-85975000D01*
X125462704Y-85975001D01*
X123457800Y-85975001D01*
X123460500Y-85940694D01*
X123460500Y-85509306D01*
X123457598Y-85472431D01*
X123411744Y-85314602D01*
X123361975Y-85230447D01*
X123328084Y-85173139D01*
X123323301Y-85166974D01*
X123325752Y-85165072D01*
X123299154Y-85116421D01*
X123304103Y-85046726D01*
X123324942Y-85014299D01*
X123323301Y-85013026D01*
X123328077Y-85006868D01*
X123328081Y-85006865D01*
X123411744Y-84865398D01*
X123457598Y-84707569D01*
X123460500Y-84670694D01*
X123460500Y-84239306D01*
X123457598Y-84202431D01*
X123451542Y-84181587D01*
X123423836Y-84086224D01*
X123411744Y-84044602D01*
X123366217Y-83967620D01*
X123328084Y-83903139D01*
X123323301Y-83896974D01*
X123325752Y-83895072D01*
X123299154Y-83846421D01*
X123304103Y-83776726D01*
X123324942Y-83744299D01*
X123323301Y-83743026D01*
X123328077Y-83736868D01*
X123328081Y-83736865D01*
X123411744Y-83595398D01*
X123457398Y-83438259D01*
X123457597Y-83437573D01*
X123457598Y-83437567D01*
X123457605Y-83437486D01*
X123460500Y-83400694D01*
X123460500Y-83250000D01*
X123844540Y-83250000D01*
X123864326Y-83438256D01*
X123864327Y-83438259D01*
X123922818Y-83618277D01*
X123922821Y-83618284D01*
X124017467Y-83782216D01*
X124072914Y-83843796D01*
X124132018Y-83909438D01*
X124155136Y-83946700D01*
X124156481Y-83950099D01*
X124158377Y-83955630D01*
X124171380Y-84000388D01*
X124181580Y-84017634D01*
X124190136Y-84035100D01*
X124197514Y-84053732D01*
X124224898Y-84091423D01*
X124228106Y-84096307D01*
X124251827Y-84136416D01*
X124251833Y-84136424D01*
X124265990Y-84150580D01*
X124278627Y-84165375D01*
X124290406Y-84181587D01*
X124315602Y-84202431D01*
X124326309Y-84211288D01*
X124330620Y-84215210D01*
X124643876Y-84528466D01*
X124954194Y-84838784D01*
X124964019Y-84851048D01*
X124964240Y-84850866D01*
X124969210Y-84856873D01*
X124969213Y-84856876D01*
X124969214Y-84856877D01*
X125019651Y-84904241D01*
X125040530Y-84925120D01*
X125046004Y-84929366D01*
X125050442Y-84933156D01*
X125084418Y-84965062D01*
X125084422Y-84965064D01*
X125101973Y-84974713D01*
X125118231Y-84985392D01*
X125134064Y-84997674D01*
X125155293Y-85006860D01*
X125176837Y-85016183D01*
X125182081Y-85018752D01*
X125222908Y-85041197D01*
X125242312Y-85046179D01*
X125260710Y-85052478D01*
X125279105Y-85060438D01*
X125325129Y-85067726D01*
X125330832Y-85068907D01*
X125375981Y-85080500D01*
X125396016Y-85080500D01*
X125415413Y-85082026D01*
X125421046Y-85082919D01*
X125442903Y-85086381D01*
X125442524Y-85088771D01*
X125497512Y-85106803D01*
X125541594Y-85161012D01*
X125549370Y-85230447D01*
X125533977Y-85272091D01*
X125508718Y-85314802D01*
X125462899Y-85472513D01*
X125462704Y-85474998D01*
X125462705Y-85475000D01*
X128407295Y-85475000D01*
X128407295Y-85474998D01*
X128407100Y-85472513D01*
X128361281Y-85314801D01*
X128277685Y-85173447D01*
X128272900Y-85167278D01*
X128275366Y-85165364D01*
X128248802Y-85116776D01*
X128253749Y-85047082D01*
X128274856Y-85014232D01*
X128273301Y-85013026D01*
X128278077Y-85006868D01*
X128278081Y-85006865D01*
X128361744Y-84865398D01*
X128407598Y-84707569D01*
X128410500Y-84670694D01*
X128410500Y-84239306D01*
X128407598Y-84202431D01*
X128401542Y-84181587D01*
X128373836Y-84086224D01*
X128361744Y-84044602D01*
X128278081Y-83903135D01*
X128278078Y-83903132D01*
X128273298Y-83896969D01*
X128275635Y-83895155D01*
X128248798Y-83846050D01*
X128253756Y-83776356D01*
X128274554Y-83743998D01*
X128272903Y-83742717D01*
X128277686Y-83736550D01*
X128361281Y-83595198D01*
X128407100Y-83437486D01*
X128407295Y-83435001D01*
X128407295Y-83435000D01*
X126809000Y-83435000D01*
X126741961Y-83415315D01*
X126696206Y-83362511D01*
X126685000Y-83311000D01*
X126685000Y-83059000D01*
X126704685Y-82991961D01*
X126757489Y-82946206D01*
X126809000Y-82935000D01*
X128407295Y-82935000D01*
X128407295Y-82934998D01*
X128407100Y-82932513D01*
X128361281Y-82774801D01*
X128277685Y-82633447D01*
X128272900Y-82627278D01*
X128275366Y-82625364D01*
X128248802Y-82576776D01*
X128253749Y-82507082D01*
X128274856Y-82474232D01*
X128273301Y-82473026D01*
X128278077Y-82466868D01*
X128278081Y-82466865D01*
X128361744Y-82325398D01*
X128404259Y-82179061D01*
X128407597Y-82167573D01*
X128407598Y-82167567D01*
X128408743Y-82153026D01*
X128410500Y-82130694D01*
X128410500Y-81699306D01*
X128407598Y-81662431D01*
X128361744Y-81504602D01*
X128278081Y-81363135D01*
X128278079Y-81363133D01*
X128278076Y-81363129D01*
X128161870Y-81246923D01*
X128161862Y-81246917D01*
X128041323Y-81175631D01*
X128020398Y-81163256D01*
X128020397Y-81163255D01*
X128020396Y-81163255D01*
X128020393Y-81163254D01*
X127862573Y-81117402D01*
X127862567Y-81117401D01*
X127825696Y-81114500D01*
X127825694Y-81114500D01*
X126044306Y-81114500D01*
X126044304Y-81114500D01*
X126007432Y-81117401D01*
X126007426Y-81117402D01*
X125849606Y-81163254D01*
X125849603Y-81163255D01*
X125708137Y-81246917D01*
X125708129Y-81246923D01*
X125701872Y-81253181D01*
X125640549Y-81286666D01*
X125614191Y-81289500D01*
X125417743Y-81289500D01*
X125402122Y-81287775D01*
X125402096Y-81288061D01*
X125394334Y-81287327D01*
X125394333Y-81287327D01*
X125325186Y-81289500D01*
X125295649Y-81289500D01*
X125288766Y-81290369D01*
X125282949Y-81290826D01*
X125236373Y-81292290D01*
X125217129Y-81297881D01*
X125198079Y-81301825D01*
X125178211Y-81304334D01*
X125134884Y-81321488D01*
X125129358Y-81323379D01*
X125084614Y-81336379D01*
X125084610Y-81336381D01*
X125067366Y-81346579D01*
X125049905Y-81355133D01*
X125031274Y-81362510D01*
X125031262Y-81362517D01*
X124993570Y-81389902D01*
X124988687Y-81393109D01*
X124948580Y-81416829D01*
X124934414Y-81430995D01*
X124919624Y-81443627D01*
X124903414Y-81455404D01*
X124903411Y-81455407D01*
X124873710Y-81491309D01*
X124869777Y-81495631D01*
X124366208Y-81999199D01*
X124353951Y-82009020D01*
X124354134Y-82009241D01*
X124348123Y-82014213D01*
X124300772Y-82064636D01*
X124279889Y-82085519D01*
X124279877Y-82085532D01*
X124275621Y-82091017D01*
X124271837Y-82095447D01*
X124239937Y-82129418D01*
X124239936Y-82129420D01*
X124230284Y-82146976D01*
X124219610Y-82163226D01*
X124207329Y-82179061D01*
X124207324Y-82179068D01*
X124188815Y-82221838D01*
X124186245Y-82227084D01*
X124163803Y-82267906D01*
X124158822Y-82287307D01*
X124152521Y-82305710D01*
X124144562Y-82324102D01*
X124144561Y-82324105D01*
X124137271Y-82370127D01*
X124136087Y-82375846D01*
X124124501Y-82420972D01*
X124124500Y-82420982D01*
X124124500Y-82441016D01*
X124122973Y-82460416D01*
X124119839Y-82480194D01*
X124119839Y-82480195D01*
X124124224Y-82526581D01*
X124124499Y-82532418D01*
X124124499Y-82551313D01*
X124104814Y-82618352D01*
X124092649Y-82634285D01*
X124017466Y-82717784D01*
X123922821Y-82881715D01*
X123922818Y-82881722D01*
X123864327Y-83061740D01*
X123864326Y-83061744D01*
X123844540Y-83250000D01*
X123460500Y-83250000D01*
X123460500Y-82969306D01*
X123457598Y-82932431D01*
X123442863Y-82881715D01*
X123411745Y-82774606D01*
X123411744Y-82774603D01*
X123411744Y-82774602D01*
X123351043Y-82671961D01*
X123328084Y-82633139D01*
X123323301Y-82626974D01*
X123325752Y-82625072D01*
X123299154Y-82576421D01*
X123304103Y-82506726D01*
X123324942Y-82474299D01*
X123323301Y-82473026D01*
X123328077Y-82466868D01*
X123328081Y-82466865D01*
X123411744Y-82325398D01*
X123454259Y-82179061D01*
X123457597Y-82167573D01*
X123457598Y-82167567D01*
X123458743Y-82153026D01*
X123460500Y-82130694D01*
X123460500Y-81699306D01*
X123457598Y-81662431D01*
X123411744Y-81504602D01*
X123393782Y-81474231D01*
X123376601Y-81406508D01*
X123398762Y-81340246D01*
X123404963Y-81332274D01*
X123405564Y-81331338D01*
X123405567Y-81331336D01*
X123424277Y-81290369D01*
X123465335Y-81200465D01*
X123465338Y-81200459D01*
X123484440Y-81135406D01*
X123485022Y-81133425D01*
X123485023Y-81133419D01*
X123485024Y-81133416D01*
X123505500Y-80991000D01*
X123505500Y-79029000D01*
X123493947Y-78921544D01*
X123482741Y-78870033D01*
X123478318Y-78856744D01*
X123448616Y-78767502D01*
X123448613Y-78767496D01*
X123393116Y-78681142D01*
X123373431Y-78614103D01*
X123390698Y-78550983D01*
X123411744Y-78515398D01*
X123457598Y-78357569D01*
X123460500Y-78320694D01*
X123460500Y-77889306D01*
X123457598Y-77852431D01*
X123443616Y-77804306D01*
X123411745Y-77694606D01*
X123411744Y-77694603D01*
X123411744Y-77694602D01*
X123371382Y-77626353D01*
X123328084Y-77553139D01*
X123323301Y-77546974D01*
X123325752Y-77545072D01*
X123299154Y-77496421D01*
X123304103Y-77426726D01*
X123324942Y-77394299D01*
X123323301Y-77393026D01*
X123328077Y-77386868D01*
X123328081Y-77386865D01*
X123411744Y-77245398D01*
X123457598Y-77087569D01*
X123460500Y-77050694D01*
X123460500Y-76619306D01*
X123457598Y-76582431D01*
X123447447Y-76547492D01*
X123411745Y-76424606D01*
X123411744Y-76424603D01*
X123411744Y-76424602D01*
X123361475Y-76339602D01*
X123328084Y-76283139D01*
X123323301Y-76276974D01*
X123325752Y-76275072D01*
X123299154Y-76226421D01*
X123304103Y-76156726D01*
X123324942Y-76124299D01*
X123323301Y-76123026D01*
X123328077Y-76116868D01*
X123328081Y-76116865D01*
X123411744Y-75975398D01*
X123457598Y-75817569D01*
X123460500Y-75780694D01*
X123460500Y-75349306D01*
X123457598Y-75312431D01*
X123457398Y-75311744D01*
X123411745Y-75154606D01*
X123411744Y-75154603D01*
X123411744Y-75154602D01*
X123353566Y-75056228D01*
X123328084Y-75013139D01*
X123323301Y-75006974D01*
X123325752Y-75005072D01*
X123299154Y-74956421D01*
X123304103Y-74886726D01*
X123324942Y-74854299D01*
X123323301Y-74853026D01*
X123328077Y-74846868D01*
X123328081Y-74846865D01*
X123411744Y-74705398D01*
X123457598Y-74547569D01*
X123459932Y-74517908D01*
X123460500Y-74510696D01*
X123460500Y-74079304D01*
X123457598Y-74042432D01*
X123457597Y-74042426D01*
X123411745Y-73884606D01*
X123411744Y-73884603D01*
X123411744Y-73884602D01*
X123328081Y-73743135D01*
X123328079Y-73743133D01*
X123328076Y-73743129D01*
X123211870Y-73626923D01*
X123211862Y-73626917D01*
X123070396Y-73543255D01*
X123070393Y-73543254D01*
X122912573Y-73497402D01*
X122912567Y-73497401D01*
X122875696Y-73494500D01*
X122875694Y-73494500D01*
X121290596Y-73494500D01*
X121223557Y-73474815D01*
X121177802Y-73422011D01*
X121171619Y-73405436D01*
X121159011Y-73362496D01*
X121081223Y-73241457D01*
X121081218Y-73241451D01*
X121035474Y-73188659D01*
X121035470Y-73188656D01*
X121035468Y-73188653D01*
X120926734Y-73094433D01*
X120926731Y-73094431D01*
X120926729Y-73094430D01*
X120795863Y-73034664D01*
X120795858Y-73034662D01*
X120795857Y-73034662D01*
X120773256Y-73028025D01*
X120728823Y-73014978D01*
X120728817Y-73014976D01*
X120643364Y-73002690D01*
X120586398Y-72994500D01*
X116624000Y-72994500D01*
X116623991Y-72994500D01*
X116623990Y-72994501D01*
X116516549Y-73006052D01*
X116516537Y-73006054D01*
X116465027Y-73017260D01*
X116362502Y-73051383D01*
X116362496Y-73051386D01*
X116241462Y-73129171D01*
X116241451Y-73129179D01*
X116188659Y-73174923D01*
X116094433Y-73283664D01*
X116094430Y-73283668D01*
X116034664Y-73414534D01*
X116014978Y-73481575D01*
X116014976Y-73481580D01*
X115994500Y-73624001D01*
X115994499Y-73624002D01*
X115500000Y-73624002D01*
X115500000Y-68624000D01*
X115519685Y-68556961D01*
X115572489Y-68511206D01*
X115624000Y-68500000D01*
X127250302Y-68500000D01*
X127317341Y-68519685D01*
G37*
%TD.AperFunction*%
%TD*%
%TA.AperFunction,Conductor*%
%TO.N,Net-(Q1B-D2-Pad5)*%
G36*
X120653437Y-73519685D02*
G01*
X120699192Y-73572489D01*
X120709136Y-73641647D01*
X120680111Y-73705203D01*
X120674079Y-73711681D01*
X120642321Y-73743438D01*
X120642314Y-73743447D01*
X120558718Y-73884801D01*
X120512899Y-74042513D01*
X120512704Y-74044998D01*
X120512705Y-74045000D01*
X122111000Y-74045000D01*
X122178039Y-74064685D01*
X122223794Y-74117489D01*
X122235000Y-74169000D01*
X122235000Y-75691000D01*
X122215315Y-75758039D01*
X122162511Y-75803794D01*
X122111000Y-75815000D01*
X120512705Y-75815000D01*
X120512704Y-75815001D01*
X120512899Y-75817488D01*
X120512900Y-75817491D01*
X120519848Y-75841407D01*
X120519647Y-75911276D01*
X120481704Y-75969946D01*
X120418065Y-75998788D01*
X120400771Y-76000000D01*
X118250000Y-76000000D01*
X118250000Y-84000000D01*
X120406582Y-84000000D01*
X120473621Y-84019685D01*
X120519376Y-84072489D01*
X120529320Y-84141647D01*
X120525658Y-84158595D01*
X120512900Y-84202505D01*
X120512899Y-84202511D01*
X120512704Y-84204998D01*
X120512705Y-84205000D01*
X122111000Y-84205000D01*
X122178039Y-84224685D01*
X122223794Y-84277489D01*
X122235000Y-84329000D01*
X122235000Y-85851000D01*
X122215315Y-85918039D01*
X122162511Y-85963794D01*
X122111000Y-85975000D01*
X120512705Y-85975000D01*
X120512704Y-85975001D01*
X120512899Y-85977488D01*
X120512900Y-85977494D01*
X120545995Y-86091405D01*
X120545796Y-86161274D01*
X120507854Y-86219944D01*
X120444215Y-86248788D01*
X120426919Y-86250000D01*
X116624000Y-86250000D01*
X116556961Y-86230315D01*
X116511206Y-86177511D01*
X116500000Y-86126000D01*
X116500000Y-85474998D01*
X120512704Y-85474998D01*
X120512705Y-85475000D01*
X121735000Y-85475000D01*
X121735000Y-84705000D01*
X120512705Y-84705000D01*
X120512704Y-84705001D01*
X120512899Y-84707486D01*
X120558718Y-84865198D01*
X120642314Y-85006552D01*
X120647100Y-85012722D01*
X120644753Y-85014542D01*
X120671564Y-85063642D01*
X120666580Y-85133334D01*
X120645541Y-85166069D01*
X120647100Y-85167278D01*
X120642314Y-85173447D01*
X120558718Y-85314801D01*
X120512899Y-85472513D01*
X120512704Y-85474998D01*
X116500000Y-85474998D01*
X116500000Y-75314998D01*
X120512704Y-75314998D01*
X120512705Y-75315000D01*
X121735000Y-75315000D01*
X121735000Y-74545000D01*
X120512705Y-74545000D01*
X120512704Y-74545001D01*
X120512899Y-74547486D01*
X120558718Y-74705198D01*
X120642314Y-74846552D01*
X120647100Y-74852722D01*
X120644753Y-74854542D01*
X120671564Y-74903642D01*
X120666580Y-74973334D01*
X120645541Y-75006069D01*
X120647100Y-75007278D01*
X120642314Y-75013447D01*
X120558718Y-75154801D01*
X120512899Y-75312513D01*
X120512704Y-75314998D01*
X116500000Y-75314998D01*
X116500000Y-73624000D01*
X116519685Y-73556961D01*
X116572489Y-73511206D01*
X116624000Y-73500000D01*
X120586398Y-73500000D01*
X120653437Y-73519685D01*
G37*
%TD.AperFunction*%
%TD*%
%TA.AperFunction,Conductor*%
%TO.N,Net-(Q3B-D2-Pad5)*%
G36*
X134265073Y-73769685D02*
G01*
X134310828Y-73822489D01*
X134320772Y-73891647D01*
X134317111Y-73908594D01*
X134302899Y-73957511D01*
X134302704Y-73959998D01*
X134302705Y-73960000D01*
X135901000Y-73960000D01*
X135968039Y-73979685D01*
X136013794Y-74032489D01*
X136025000Y-74084000D01*
X136025000Y-75606000D01*
X136005315Y-75673039D01*
X135952511Y-75718794D01*
X135901000Y-75730000D01*
X134302705Y-75730000D01*
X134302704Y-75730001D01*
X134302899Y-75732488D01*
X134302900Y-75732494D01*
X134334542Y-75841405D01*
X134334343Y-75911275D01*
X134296401Y-75969945D01*
X134232762Y-75998788D01*
X134215466Y-76000000D01*
X132000000Y-76000000D01*
X132000000Y-83500000D01*
X134289271Y-83500000D01*
X134356310Y-83519685D01*
X134402065Y-83572489D01*
X134412009Y-83641647D01*
X134396003Y-83687122D01*
X134373717Y-83724803D01*
X134327899Y-83882513D01*
X134327704Y-83884998D01*
X134327705Y-83885000D01*
X135926000Y-83885000D01*
X135993039Y-83904685D01*
X136038794Y-83957489D01*
X136050000Y-84009000D01*
X136050000Y-85531000D01*
X136030315Y-85598039D01*
X135977511Y-85643794D01*
X135926000Y-85655000D01*
X134327705Y-85655000D01*
X134313230Y-85670658D01*
X134310290Y-85684653D01*
X134261237Y-85734407D01*
X134201039Y-85750000D01*
X131301362Y-85750000D01*
X131234323Y-85730315D01*
X131213681Y-85713681D01*
X130654998Y-85154998D01*
X134327704Y-85154998D01*
X134327705Y-85155000D01*
X135550000Y-85155000D01*
X135550000Y-84385000D01*
X134327705Y-84385000D01*
X134327704Y-84385001D01*
X134327899Y-84387486D01*
X134373718Y-84545198D01*
X134457314Y-84686552D01*
X134462100Y-84692722D01*
X134459753Y-84694542D01*
X134486564Y-84743642D01*
X134481580Y-84813334D01*
X134460541Y-84846069D01*
X134462100Y-84847278D01*
X134457314Y-84853447D01*
X134373718Y-84994801D01*
X134327899Y-85152513D01*
X134327704Y-85154998D01*
X130654998Y-85154998D01*
X130036319Y-84536319D01*
X130002834Y-84474996D01*
X130000000Y-84448638D01*
X130000000Y-83500000D01*
X129999999Y-75287539D01*
X130016896Y-75229998D01*
X134302704Y-75229998D01*
X134302705Y-75230000D01*
X135525000Y-75230000D01*
X135525000Y-74460000D01*
X134302705Y-74460000D01*
X134302704Y-74460001D01*
X134302899Y-74462486D01*
X134348718Y-74620198D01*
X134432314Y-74761552D01*
X134437100Y-74767722D01*
X134434753Y-74769542D01*
X134461564Y-74818642D01*
X134456580Y-74888334D01*
X134435541Y-74921069D01*
X134437100Y-74922278D01*
X134432314Y-74928447D01*
X134348718Y-75069801D01*
X134302899Y-75227513D01*
X134302704Y-75229998D01*
X130016896Y-75229998D01*
X130019684Y-75220504D01*
X130020737Y-75218894D01*
X130963188Y-73805217D01*
X131016754Y-73760356D01*
X131066363Y-73750000D01*
X134198034Y-73750000D01*
X134265073Y-73769685D01*
G37*
%TD.AperFunction*%
%TD*%
M02*
