%TF.GenerationSoftware,KiCad,Pcbnew,7.0.6*%
%TF.CreationDate,2023-10-15T16:26:04+03:00*%
%TF.ProjectId,MOSFET,4d4f5346-4554-42e6-9b69-6361645f7063,rev?*%
%TF.SameCoordinates,Original*%
%TF.FileFunction,Copper,L2,Bot*%
%TF.FilePolarity,Positive*%
%FSLAX46Y46*%
G04 Gerber Fmt 4.6, Leading zero omitted, Abs format (unit mm)*
G04 Created by KiCad (PCBNEW 7.0.6) date 2023-10-15 16:26:04*
%MOMM*%
%LPD*%
G01*
G04 APERTURE LIST*
%TA.AperFunction,ComponentPad*%
%ADD10R,1.350000X1.350000*%
%TD*%
%TA.AperFunction,ComponentPad*%
%ADD11O,1.350000X1.350000*%
%TD*%
%TA.AperFunction,ViaPad*%
%ADD12C,0.800000*%
%TD*%
%TA.AperFunction,Conductor*%
%ADD13C,0.250000*%
%TD*%
G04 APERTURE END LIST*
D10*
%TO.P,J1,1,Pin_1*%
%TO.N,Net-(J1-Pin_1)*%
X145000000Y-80750000D03*
D11*
%TO.P,J1,2,Pin_2*%
%TO.N,Net-(J1-Pin_2)*%
X145000000Y-78750000D03*
%TD*%
D10*
%TO.P,J2,1,Pin_1*%
%TO.N,Net-(J2-Pin_1)*%
X145000000Y-75000000D03*
%TD*%
%TO.P,J3,1,Pin_1*%
%TO.N,GND*%
X145250000Y-84750000D03*
%TD*%
D12*
%TO.N,Net-(J1-Pin_1)*%
X138750000Y-83000000D03*
X124750000Y-83250000D03*
%TO.N,Net-(J1-Pin_2)*%
X138500000Y-75500000D03*
X124750000Y-75500000D03*
%TD*%
D13*
%TO.N,Net-(J1-Pin_1)*%
X143500000Y-80750000D02*
X145000000Y-80750000D01*
X143250000Y-80500000D02*
X143500000Y-80750000D01*
X139750000Y-80500000D02*
X143250000Y-80500000D01*
%TO.N,Net-(J1-Pin_2)*%
X142250000Y-79500000D02*
X143000000Y-78750000D01*
X139750000Y-79500000D02*
X142250000Y-79500000D01*
X143000000Y-78750000D02*
X145000000Y-78750000D01*
%TO.N,Net-(J1-Pin_1)*%
X124750000Y-83250000D02*
X124750000Y-81250000D01*
X138750000Y-83000000D02*
X138750000Y-81500000D01*
X124750000Y-81250000D02*
X125500000Y-80500000D01*
X138750000Y-81500000D02*
X139750000Y-80500000D01*
X125500000Y-80500000D02*
X139750000Y-80500000D01*
%TO.N,Net-(J1-Pin_2)*%
X138500000Y-75500000D02*
X138500000Y-78250000D01*
X124750000Y-75500000D02*
X124750000Y-78500000D01*
X125750000Y-79500000D02*
X139750000Y-79500000D01*
X124750000Y-78500000D02*
X125750000Y-79500000D01*
X138500000Y-78250000D02*
X139750000Y-79500000D01*
%TD*%
M02*
