%TF.GenerationSoftware,KiCad,Pcbnew,7.0.6*%
%TF.CreationDate,2023-10-15T16:26:04+03:00*%
%TF.ProjectId,MOSFET,4d4f5346-4554-42e6-9b69-6361645f7063,rev?*%
%TF.SameCoordinates,Original*%
%TF.FileFunction,Legend,Top*%
%TF.FilePolarity,Positive*%
%FSLAX46Y46*%
G04 Gerber Fmt 4.6, Leading zero omitted, Abs format (unit mm)*
G04 Created by KiCad (PCBNEW 7.0.6) date 2023-10-15 16:26:04*
%MOMM*%
%LPD*%
G01*
G04 APERTURE LIST*
%ADD10C,0.150000*%
%ADD11C,0.120000*%
G04 APERTURE END LIST*
D10*
X144666666Y-82704819D02*
X144666666Y-83419104D01*
X144666666Y-83419104D02*
X144619047Y-83561961D01*
X144619047Y-83561961D02*
X144523809Y-83657200D01*
X144523809Y-83657200D02*
X144380952Y-83704819D01*
X144380952Y-83704819D02*
X144285714Y-83704819D01*
X145666666Y-83704819D02*
X145095238Y-83704819D01*
X145380952Y-83704819D02*
X145380952Y-82704819D01*
X145380952Y-82704819D02*
X145285714Y-82847676D01*
X145285714Y-82847676D02*
X145190476Y-82942914D01*
X145190476Y-82942914D02*
X145095238Y-82990533D01*
X138179761Y-87450057D02*
X138084523Y-87402438D01*
X138084523Y-87402438D02*
X137989285Y-87307200D01*
X137989285Y-87307200D02*
X137846428Y-87164342D01*
X137846428Y-87164342D02*
X137751190Y-87116723D01*
X137751190Y-87116723D02*
X137655952Y-87116723D01*
X137703571Y-87354819D02*
X137608333Y-87307200D01*
X137608333Y-87307200D02*
X137513095Y-87211961D01*
X137513095Y-87211961D02*
X137465476Y-87021485D01*
X137465476Y-87021485D02*
X137465476Y-86688152D01*
X137465476Y-86688152D02*
X137513095Y-86497676D01*
X137513095Y-86497676D02*
X137608333Y-86402438D01*
X137608333Y-86402438D02*
X137703571Y-86354819D01*
X137703571Y-86354819D02*
X137894047Y-86354819D01*
X137894047Y-86354819D02*
X137989285Y-86402438D01*
X137989285Y-86402438D02*
X138084523Y-86497676D01*
X138084523Y-86497676D02*
X138132142Y-86688152D01*
X138132142Y-86688152D02*
X138132142Y-87021485D01*
X138132142Y-87021485D02*
X138084523Y-87211961D01*
X138084523Y-87211961D02*
X137989285Y-87307200D01*
X137989285Y-87307200D02*
X137894047Y-87354819D01*
X137894047Y-87354819D02*
X137703571Y-87354819D01*
X138989285Y-86688152D02*
X138989285Y-87354819D01*
X138751190Y-86307200D02*
X138513095Y-87021485D01*
X138513095Y-87021485D02*
X139132142Y-87021485D01*
X138154761Y-80065057D02*
X138059523Y-80017438D01*
X138059523Y-80017438D02*
X137964285Y-79922200D01*
X137964285Y-79922200D02*
X137821428Y-79779342D01*
X137821428Y-79779342D02*
X137726190Y-79731723D01*
X137726190Y-79731723D02*
X137630952Y-79731723D01*
X137678571Y-79969819D02*
X137583333Y-79922200D01*
X137583333Y-79922200D02*
X137488095Y-79826961D01*
X137488095Y-79826961D02*
X137440476Y-79636485D01*
X137440476Y-79636485D02*
X137440476Y-79303152D01*
X137440476Y-79303152D02*
X137488095Y-79112676D01*
X137488095Y-79112676D02*
X137583333Y-79017438D01*
X137583333Y-79017438D02*
X137678571Y-78969819D01*
X137678571Y-78969819D02*
X137869047Y-78969819D01*
X137869047Y-78969819D02*
X137964285Y-79017438D01*
X137964285Y-79017438D02*
X138059523Y-79112676D01*
X138059523Y-79112676D02*
X138107142Y-79303152D01*
X138107142Y-79303152D02*
X138107142Y-79636485D01*
X138107142Y-79636485D02*
X138059523Y-79826961D01*
X138059523Y-79826961D02*
X137964285Y-79922200D01*
X137964285Y-79922200D02*
X137869047Y-79969819D01*
X137869047Y-79969819D02*
X137678571Y-79969819D01*
X138440476Y-78969819D02*
X139059523Y-78969819D01*
X139059523Y-78969819D02*
X138726190Y-79350771D01*
X138726190Y-79350771D02*
X138869047Y-79350771D01*
X138869047Y-79350771D02*
X138964285Y-79398390D01*
X138964285Y-79398390D02*
X139011904Y-79446009D01*
X139011904Y-79446009D02*
X139059523Y-79541247D01*
X139059523Y-79541247D02*
X139059523Y-79779342D01*
X139059523Y-79779342D02*
X139011904Y-79874580D01*
X139011904Y-79874580D02*
X138964285Y-79922200D01*
X138964285Y-79922200D02*
X138869047Y-79969819D01*
X138869047Y-79969819D02*
X138583333Y-79969819D01*
X138583333Y-79969819D02*
X138488095Y-79922200D01*
X138488095Y-79922200D02*
X138440476Y-79874580D01*
X124364761Y-87770057D02*
X124269523Y-87722438D01*
X124269523Y-87722438D02*
X124174285Y-87627200D01*
X124174285Y-87627200D02*
X124031428Y-87484342D01*
X124031428Y-87484342D02*
X123936190Y-87436723D01*
X123936190Y-87436723D02*
X123840952Y-87436723D01*
X123888571Y-87674819D02*
X123793333Y-87627200D01*
X123793333Y-87627200D02*
X123698095Y-87531961D01*
X123698095Y-87531961D02*
X123650476Y-87341485D01*
X123650476Y-87341485D02*
X123650476Y-87008152D01*
X123650476Y-87008152D02*
X123698095Y-86817676D01*
X123698095Y-86817676D02*
X123793333Y-86722438D01*
X123793333Y-86722438D02*
X123888571Y-86674819D01*
X123888571Y-86674819D02*
X124079047Y-86674819D01*
X124079047Y-86674819D02*
X124174285Y-86722438D01*
X124174285Y-86722438D02*
X124269523Y-86817676D01*
X124269523Y-86817676D02*
X124317142Y-87008152D01*
X124317142Y-87008152D02*
X124317142Y-87341485D01*
X124317142Y-87341485D02*
X124269523Y-87531961D01*
X124269523Y-87531961D02*
X124174285Y-87627200D01*
X124174285Y-87627200D02*
X124079047Y-87674819D01*
X124079047Y-87674819D02*
X123888571Y-87674819D01*
X124698095Y-86770057D02*
X124745714Y-86722438D01*
X124745714Y-86722438D02*
X124840952Y-86674819D01*
X124840952Y-86674819D02*
X125079047Y-86674819D01*
X125079047Y-86674819D02*
X125174285Y-86722438D01*
X125174285Y-86722438D02*
X125221904Y-86770057D01*
X125221904Y-86770057D02*
X125269523Y-86865295D01*
X125269523Y-86865295D02*
X125269523Y-86960533D01*
X125269523Y-86960533D02*
X125221904Y-87103390D01*
X125221904Y-87103390D02*
X124650476Y-87674819D01*
X124650476Y-87674819D02*
X125269523Y-87674819D01*
X144666666Y-71954819D02*
X144666666Y-72669104D01*
X144666666Y-72669104D02*
X144619047Y-72811961D01*
X144619047Y-72811961D02*
X144523809Y-72907200D01*
X144523809Y-72907200D02*
X144380952Y-72954819D01*
X144380952Y-72954819D02*
X144285714Y-72954819D01*
X145095238Y-72050057D02*
X145142857Y-72002438D01*
X145142857Y-72002438D02*
X145238095Y-71954819D01*
X145238095Y-71954819D02*
X145476190Y-71954819D01*
X145476190Y-71954819D02*
X145571428Y-72002438D01*
X145571428Y-72002438D02*
X145619047Y-72050057D01*
X145619047Y-72050057D02*
X145666666Y-72145295D01*
X145666666Y-72145295D02*
X145666666Y-72240533D01*
X145666666Y-72240533D02*
X145619047Y-72383390D01*
X145619047Y-72383390D02*
X145047619Y-72954819D01*
X145047619Y-72954819D02*
X145666666Y-72954819D01*
X124364761Y-80150057D02*
X124269523Y-80102438D01*
X124269523Y-80102438D02*
X124174285Y-80007200D01*
X124174285Y-80007200D02*
X124031428Y-79864342D01*
X124031428Y-79864342D02*
X123936190Y-79816723D01*
X123936190Y-79816723D02*
X123840952Y-79816723D01*
X123888571Y-80054819D02*
X123793333Y-80007200D01*
X123793333Y-80007200D02*
X123698095Y-79911961D01*
X123698095Y-79911961D02*
X123650476Y-79721485D01*
X123650476Y-79721485D02*
X123650476Y-79388152D01*
X123650476Y-79388152D02*
X123698095Y-79197676D01*
X123698095Y-79197676D02*
X123793333Y-79102438D01*
X123793333Y-79102438D02*
X123888571Y-79054819D01*
X123888571Y-79054819D02*
X124079047Y-79054819D01*
X124079047Y-79054819D02*
X124174285Y-79102438D01*
X124174285Y-79102438D02*
X124269523Y-79197676D01*
X124269523Y-79197676D02*
X124317142Y-79388152D01*
X124317142Y-79388152D02*
X124317142Y-79721485D01*
X124317142Y-79721485D02*
X124269523Y-79911961D01*
X124269523Y-79911961D02*
X124174285Y-80007200D01*
X124174285Y-80007200D02*
X124079047Y-80054819D01*
X124079047Y-80054819D02*
X123888571Y-80054819D01*
X125269523Y-80054819D02*
X124698095Y-80054819D01*
X124983809Y-80054819D02*
X124983809Y-79054819D01*
X124983809Y-79054819D02*
X124888571Y-79197676D01*
X124888571Y-79197676D02*
X124793333Y-79292914D01*
X124793333Y-79292914D02*
X124698095Y-79340533D01*
X144916666Y-81704819D02*
X144916666Y-82419104D01*
X144916666Y-82419104D02*
X144869047Y-82561961D01*
X144869047Y-82561961D02*
X144773809Y-82657200D01*
X144773809Y-82657200D02*
X144630952Y-82704819D01*
X144630952Y-82704819D02*
X144535714Y-82704819D01*
X145297619Y-81704819D02*
X145916666Y-81704819D01*
X145916666Y-81704819D02*
X145583333Y-82085771D01*
X145583333Y-82085771D02*
X145726190Y-82085771D01*
X145726190Y-82085771D02*
X145821428Y-82133390D01*
X145821428Y-82133390D02*
X145869047Y-82181009D01*
X145869047Y-82181009D02*
X145916666Y-82276247D01*
X145916666Y-82276247D02*
X145916666Y-82514342D01*
X145916666Y-82514342D02*
X145869047Y-82609580D01*
X145869047Y-82609580D02*
X145821428Y-82657200D01*
X145821428Y-82657200D02*
X145726190Y-82704819D01*
X145726190Y-82704819D02*
X145440476Y-82704819D01*
X145440476Y-82704819D02*
X145345238Y-82657200D01*
X145345238Y-82657200D02*
X145297619Y-82609580D01*
D11*
%TO.C,J1*%
X146060000Y-79750000D02*
X143940000Y-79750000D01*
X143940000Y-81810000D02*
X143940000Y-80750000D01*
X146060000Y-79750000D02*
X146060000Y-77690000D01*
X143940000Y-79750000D02*
X143940000Y-77690000D01*
X146060000Y-77690000D02*
X143940000Y-77690000D01*
X145000000Y-81810000D02*
X143940000Y-81810000D01*
%TO.C,Q4*%
X138275000Y-86060000D02*
X141725000Y-86060000D01*
X138275000Y-86060000D02*
X136325000Y-86060000D01*
X138275000Y-80940000D02*
X140225000Y-80940000D01*
X138275000Y-80940000D02*
X136325000Y-80940000D01*
%TO.C,Q3*%
X138250000Y-78675000D02*
X141700000Y-78675000D01*
X138250000Y-78675000D02*
X136300000Y-78675000D01*
X138250000Y-73555000D02*
X140200000Y-73555000D01*
X138250000Y-73555000D02*
X136300000Y-73555000D01*
%TO.C,Q2*%
X124460000Y-86380000D02*
X127910000Y-86380000D01*
X124460000Y-86380000D02*
X122510000Y-86380000D01*
X124460000Y-81260000D02*
X126410000Y-81260000D01*
X124460000Y-81260000D02*
X122510000Y-81260000D01*
%TO.C,J2*%
X143940000Y-75940000D02*
X143940000Y-76060000D01*
X143940000Y-76060000D02*
X146060000Y-76060000D01*
X145000000Y-73940000D02*
X146060000Y-73940000D01*
X146060000Y-73940000D02*
X146060000Y-75000000D01*
X146060000Y-75940000D02*
X146060000Y-76060000D01*
%TO.C,Q1*%
X124460000Y-78760000D02*
X127910000Y-78760000D01*
X124460000Y-78760000D02*
X122510000Y-78760000D01*
X124460000Y-73640000D02*
X126410000Y-73640000D01*
X124460000Y-73640000D02*
X122510000Y-73640000D01*
%TO.C,J3*%
X144190000Y-85690000D02*
X144190000Y-85810000D01*
X144190000Y-85810000D02*
X146310000Y-85810000D01*
X145250000Y-83690000D02*
X146310000Y-83690000D01*
X146310000Y-83690000D02*
X146310000Y-84750000D01*
X146310000Y-85690000D02*
X146310000Y-85810000D01*
%TD*%
M02*
